M48
; DRILL file {KiCad 8.0.5} date 2024-10-10T11:52:31-0400
; FORMAT={-:-/ absolute / metric / decimal}
; #@! TF.CreationDate,2024-10-10T11:52:31-04:00
; #@! TF.GenerationSoftware,Kicad,Pcbnew,8.0.5
; #@! TF.FileFunction,Plated,1,4,PTH
FMAT,2
METRIC
; #@! TA.AperFunction,Plated,PTH,ViaDrill
T1C0.300
; #@! TA.AperFunction,Plated,PTH,ViaDrill
T2C0.400
; #@! TA.AperFunction,Plated,PTH,ComponentDrill
T3C0.920
; #@! TA.AperFunction,Plated,PTH,ComponentDrill
T4C1.000
; #@! TA.AperFunction,Plated,PTH,ComponentDrill
T5C2.330
%
G90
G05
T1
X85.05Y-88.85
X86.563Y-87.478
X87.224Y-86.208
X87.681Y-87.173
X88.24Y-86.36
X89.75Y-86.9
X99.565Y-92.1
X100.93Y-86.92
X101.295Y-82.956
X101.65Y-86.275
X102.3Y-85.0
X103.886Y-89.916
X103.988Y-90.983
X109.3Y-84.375
X109.4Y-86.4
T2
X68.58Y-76.708
X68.58Y-78.232
X68.58Y-79.756
X68.58Y-83.82
X68.58Y-85.344
X68.58Y-86.868
X68.58Y-88.392
X68.58Y-89.916
X68.58Y-91.44
X68.58Y-95.504
X68.58Y-97.028
X68.58Y-98.552
X70.104Y-76.708
X70.104Y-78.232
X70.104Y-79.756
X70.104Y-83.82
X70.104Y-85.344
X70.104Y-86.868
X70.104Y-88.392
X70.104Y-89.916
X70.104Y-91.44
X70.104Y-95.504
X70.104Y-97.028
X70.104Y-98.552
X71.628Y-76.708
X71.628Y-78.232
X71.628Y-79.756
X71.628Y-83.82
X71.628Y-85.344
X71.628Y-86.868
X71.628Y-88.392
X71.628Y-89.916
X71.628Y-91.44
X71.628Y-95.504
X71.628Y-97.028
X71.628Y-98.552
X73.152Y-76.708
X73.152Y-78.232
X73.152Y-79.756
X73.152Y-83.82
X73.152Y-85.344
X73.152Y-86.868
X73.152Y-88.392
X73.152Y-89.916
X73.152Y-91.44
X73.152Y-95.504
X73.152Y-97.028
X73.152Y-98.552
X74.676Y-76.708
X74.676Y-78.232
X74.676Y-79.756
X74.676Y-83.82
X74.676Y-85.344
X74.676Y-86.868
X74.676Y-88.392
X74.676Y-89.916
X74.676Y-91.44
X74.676Y-95.504
X74.676Y-97.028
X74.676Y-98.552
X78.232Y-95.504
X78.232Y-97.028
X78.232Y-98.552
X79.0Y-78.0
X79.248Y-82.804
X79.248Y-90.932
X79.248Y-92.456
X79.756Y-95.504
X79.756Y-97.028
X79.756Y-98.552
X80.772Y-76.708
X80.772Y-78.232
X80.772Y-79.756
X80.772Y-82.804
X80.772Y-90.932
X80.772Y-92.456
X81.28Y-95.504
X81.28Y-97.028
X81.28Y-98.552
X82.296Y-76.708
X82.296Y-78.232
X82.296Y-79.756
X82.296Y-82.804
X82.296Y-90.932
X82.296Y-92.456
X82.804Y-95.504
X82.804Y-97.028
X82.804Y-98.552
X83.82Y-76.708
X83.82Y-78.232
X83.82Y-79.756
X85.025Y-81.05
X85.344Y-76.708
X85.344Y-78.232
X85.344Y-79.756
X86.4Y-91.1
X86.868Y-76.708
X86.868Y-78.232
X86.868Y-79.756
X87.5Y-88.55
X88.725Y-85.475
X89.408Y-76.708
X89.408Y-78.232
X89.408Y-79.756
X89.55Y-91.05
X89.55Y-92.25
X90.932Y-76.708
X90.932Y-78.232
X90.932Y-79.756
X92.456Y-76.708
X92.456Y-78.232
X92.456Y-79.756
X93.98Y-76.708
X93.98Y-78.232
X93.98Y-79.756
X95.504Y-76.708
X95.504Y-78.232
X95.504Y-79.756
X95.8Y-90.6
X95.8Y-92.25
X95.8Y-93.35
X100.975Y-88.55
X101.15Y-84.05
X101.15Y-85.0
X105.05Y-89.45
X105.15Y-90.4
X109.4Y-90.5
X110.236Y-78.74
X110.236Y-80.264
X110.236Y-81.788
X110.236Y-83.312
X110.236Y-92.964
X110.236Y-94.488
X110.236Y-96.012
X110.236Y-97.536
X111.7Y-91.55
X111.76Y-78.74
X111.76Y-80.264
X111.76Y-81.788
X111.76Y-83.312
X111.76Y-92.964
X111.76Y-94.488
X111.76Y-96.012
X111.76Y-97.536
X112.85Y-84.95
X113.284Y-78.74
X113.284Y-80.264
X113.284Y-81.788
X113.284Y-83.312
X113.284Y-92.964
X113.284Y-94.488
X113.284Y-96.012
X113.284Y-97.536
T3
X79.25Y-86.295
X79.25Y-88.795
X81.25Y-86.295
X81.25Y-88.795
T4
X99.345Y-77.965
X99.345Y-95.745
X101.885Y-77.965
X101.885Y-95.745
X104.425Y-77.965
X104.425Y-95.745
X106.965Y-77.965
X106.965Y-95.745
T5
X76.54Y-81.525
X76.54Y-93.565
M30
