%TF.GenerationSoftware,KiCad,Pcbnew,8.0.5*%
%TF.CreationDate,2024-10-10T11:51:51-04:00*%
%TF.ProjectId,dac,6461632e-6b69-4636-9164-5f7063625858,rev?*%
%TF.SameCoordinates,Original*%
%TF.FileFunction,Paste,Top*%
%TF.FilePolarity,Positive*%
%FSLAX46Y46*%
G04 Gerber Fmt 4.6, Leading zero omitted, Abs format (unit mm)*
G04 Created by KiCad (PCBNEW 8.0.5) date 2024-10-10 11:51:51*
%MOMM*%
%LPD*%
G01*
G04 APERTURE LIST*
G04 Aperture macros list*
%AMRoundRect*
0 Rectangle with rounded corners*
0 $1 Rounding radius*
0 $2 $3 $4 $5 $6 $7 $8 $9 X,Y pos of 4 corners*
0 Add a 4 corners polygon primitive as box body*
4,1,4,$2,$3,$4,$5,$6,$7,$8,$9,$2,$3,0*
0 Add four circle primitives for the rounded corners*
1,1,$1+$1,$2,$3*
1,1,$1+$1,$4,$5*
1,1,$1+$1,$6,$7*
1,1,$1+$1,$8,$9*
0 Add four rect primitives between the rounded corners*
20,1,$1+$1,$2,$3,$4,$5,0*
20,1,$1+$1,$4,$5,$6,$7,0*
20,1,$1+$1,$6,$7,$8,$9,0*
20,1,$1+$1,$8,$9,$2,$3,0*%
G04 Aperture macros list end*
%ADD10RoundRect,0.160000X-0.197500X-0.160000X0.197500X-0.160000X0.197500X0.160000X-0.197500X0.160000X0*%
%ADD11R,0.406400X0.711200*%
%ADD12R,1.750000X0.450000*%
%ADD13RoundRect,0.160000X0.197500X0.160000X-0.197500X0.160000X-0.197500X-0.160000X0.197500X-0.160000X0*%
%ADD14RoundRect,0.250000X-0.475000X0.337500X-0.475000X-0.337500X0.475000X-0.337500X0.475000X0.337500X0*%
%ADD15RoundRect,0.155000X0.155000X-0.212500X0.155000X0.212500X-0.155000X0.212500X-0.155000X-0.212500X0*%
%ADD16RoundRect,0.155000X-0.155000X0.212500X-0.155000X-0.212500X0.155000X-0.212500X0.155000X0.212500X0*%
%ADD17R,1.050000X1.300000*%
%ADD18RoundRect,0.160000X0.160000X-0.197500X0.160000X0.197500X-0.160000X0.197500X-0.160000X-0.197500X0*%
%ADD19RoundRect,0.160000X-0.160000X0.197500X-0.160000X-0.197500X0.160000X-0.197500X0.160000X0.197500X0*%
%ADD20RoundRect,0.250000X0.337500X0.475000X-0.337500X0.475000X-0.337500X-0.475000X0.337500X-0.475000X0*%
%ADD21RoundRect,0.155000X-0.212500X-0.155000X0.212500X-0.155000X0.212500X0.155000X-0.212500X0.155000X0*%
%ADD22RoundRect,0.250000X-0.337500X-0.475000X0.337500X-0.475000X0.337500X0.475000X-0.337500X0.475000X0*%
%ADD23RoundRect,0.155000X0.212500X0.155000X-0.212500X0.155000X-0.212500X-0.155000X0.212500X-0.155000X0*%
%ADD24RoundRect,0.237500X-0.237500X0.250000X-0.237500X-0.250000X0.237500X-0.250000X0.237500X0.250000X0*%
%ADD25RoundRect,0.150000X-0.512500X-0.150000X0.512500X-0.150000X0.512500X0.150000X-0.512500X0.150000X0*%
G04 APERTURE END LIST*
D10*
%TO.C,R2*%
X96537500Y-83705000D03*
X97732500Y-83705000D03*
%TD*%
D11*
%TO.C,D1*%
X84523300Y-88300200D03*
X84523300Y-86700000D03*
%TD*%
D10*
%TO.C,R1*%
X96537500Y-82615000D03*
X97732500Y-82615000D03*
%TD*%
D12*
%TO.C,U1*%
X99565000Y-83020000D03*
X99565000Y-83670000D03*
X99565000Y-84320000D03*
X99565000Y-84970000D03*
X99565000Y-85620000D03*
X99565000Y-86270000D03*
X99565000Y-86920000D03*
X99565000Y-87570000D03*
X99565000Y-88220000D03*
X99565000Y-88870000D03*
X99565000Y-89520000D03*
X99565000Y-90170000D03*
X99565000Y-90820000D03*
X99565000Y-91470000D03*
X106765000Y-91470000D03*
X106765000Y-90820000D03*
X106765000Y-90170000D03*
X106765000Y-89520000D03*
X106765000Y-88870000D03*
X106765000Y-88220000D03*
X106765000Y-87570000D03*
X106765000Y-86920000D03*
X106765000Y-86270000D03*
X106765000Y-85620000D03*
X106765000Y-84970000D03*
X106765000Y-84320000D03*
X106765000Y-83670000D03*
X106765000Y-83020000D03*
%TD*%
D13*
%TO.C,R3*%
X97765500Y-92241000D03*
X96570500Y-92241000D03*
%TD*%
D10*
%TO.C,R7*%
X76327500Y-76365000D03*
X77522500Y-76365000D03*
%TD*%
D14*
%TO.C,C6*%
X97095000Y-88542500D03*
X97095000Y-90617500D03*
%TD*%
D15*
%TO.C,C11*%
X85735000Y-92232500D03*
X85735000Y-91097500D03*
%TD*%
D16*
%TO.C,C3*%
X108705000Y-89337500D03*
X108705000Y-90472500D03*
%TD*%
D17*
%TO.C,Y1*%
X113115000Y-89405000D03*
X113115000Y-87105000D03*
X111365000Y-87105000D03*
X111365000Y-89405000D03*
%TD*%
D11*
%TO.C,D2*%
X84523400Y-81639800D03*
X84523400Y-83240000D03*
%TD*%
D18*
%TO.C,R5*%
X109745000Y-88592500D03*
X109745000Y-87397500D03*
%TD*%
D19*
%TO.C,R10*%
X93605000Y-88087500D03*
X93605000Y-89282500D03*
%TD*%
D20*
%TO.C,C12*%
X91802500Y-85475000D03*
X89727500Y-85475000D03*
%TD*%
D16*
%TO.C,C5*%
X108700000Y-83267500D03*
X108700000Y-84402500D03*
%TD*%
D15*
%TO.C,C13*%
X88185000Y-89692500D03*
X88185000Y-88557500D03*
%TD*%
D21*
%TO.C,C9*%
X111717500Y-85635000D03*
X112852500Y-85635000D03*
%TD*%
D13*
%TO.C,R9*%
X91482500Y-92225000D03*
X90287500Y-92225000D03*
%TD*%
D16*
%TO.C,C4*%
X108705000Y-85711500D03*
X108705000Y-86846500D03*
%TD*%
D22*
%TO.C,C10*%
X75887500Y-77995000D03*
X77962500Y-77995000D03*
%TD*%
D13*
%TO.C,R11*%
X91482500Y-91045000D03*
X90287500Y-91045000D03*
%TD*%
%TO.C,R4*%
X97765500Y-93351000D03*
X96570500Y-93351000D03*
%TD*%
%TO.C,R6*%
X97732500Y-81495000D03*
X96537500Y-81495000D03*
%TD*%
D23*
%TO.C,C8*%
X112852500Y-90895000D03*
X111717500Y-90895000D03*
%TD*%
D24*
%TO.C,R8*%
X84305000Y-90752500D03*
X84305000Y-92577500D03*
%TD*%
D25*
%TO.C,U2*%
X89717500Y-87700000D03*
X89717500Y-88650000D03*
X89717500Y-89600000D03*
X91992500Y-89600000D03*
X91992500Y-87700000D03*
%TD*%
M02*
