%TF.GenerationSoftware,KiCad,Pcbnew,8.0.5*%
%TF.CreationDate,2024-10-10T11:51:51-04:00*%
%TF.ProjectId,dac,6461632e-6b69-4636-9164-5f7063625858,rev?*%
%TF.SameCoordinates,Original*%
%TF.FileFunction,Copper,L1,Top*%
%TF.FilePolarity,Positive*%
%FSLAX46Y46*%
G04 Gerber Fmt 4.6, Leading zero omitted, Abs format (unit mm)*
G04 Created by KiCad (PCBNEW 8.0.5) date 2024-10-10 11:51:51*
%MOMM*%
%LPD*%
G01*
G04 APERTURE LIST*
G04 Aperture macros list*
%AMRoundRect*
0 Rectangle with rounded corners*
0 $1 Rounding radius*
0 $2 $3 $4 $5 $6 $7 $8 $9 X,Y pos of 4 corners*
0 Add a 4 corners polygon primitive as box body*
4,1,4,$2,$3,$4,$5,$6,$7,$8,$9,$2,$3,0*
0 Add four circle primitives for the rounded corners*
1,1,$1+$1,$2,$3*
1,1,$1+$1,$4,$5*
1,1,$1+$1,$6,$7*
1,1,$1+$1,$8,$9*
0 Add four rect primitives between the rounded corners*
20,1,$1+$1,$2,$3,$4,$5,0*
20,1,$1+$1,$4,$5,$6,$7,0*
20,1,$1+$1,$6,$7,$8,$9,0*
20,1,$1+$1,$8,$9,$2,$3,0*%
G04 Aperture macros list end*
%TA.AperFunction,SMDPad,CuDef*%
%ADD10C,1.000000*%
%TD*%
%TA.AperFunction,SMDPad,CuDef*%
%ADD11RoundRect,0.160000X-0.197500X-0.160000X0.197500X-0.160000X0.197500X0.160000X-0.197500X0.160000X0*%
%TD*%
%TA.AperFunction,ComponentPad*%
%ADD12R,1.700000X1.700000*%
%TD*%
%TA.AperFunction,ComponentPad*%
%ADD13O,1.700000X1.700000*%
%TD*%
%TA.AperFunction,SMDPad,CuDef*%
%ADD14R,0.406400X0.711200*%
%TD*%
%TA.AperFunction,SMDPad,CuDef*%
%ADD15R,1.750000X0.450000*%
%TD*%
%TA.AperFunction,SMDPad,CuDef*%
%ADD16RoundRect,0.160000X0.197500X0.160000X-0.197500X0.160000X-0.197500X-0.160000X0.197500X-0.160000X0*%
%TD*%
%TA.AperFunction,SMDPad,CuDef*%
%ADD17RoundRect,0.250000X-0.475000X0.337500X-0.475000X-0.337500X0.475000X-0.337500X0.475000X0.337500X0*%
%TD*%
%TA.AperFunction,ComponentPad*%
%ADD18C,1.700000*%
%TD*%
%TA.AperFunction,ComponentPad*%
%ADD19C,3.500000*%
%TD*%
%TA.AperFunction,SMDPad,CuDef*%
%ADD20RoundRect,0.155000X0.155000X-0.212500X0.155000X0.212500X-0.155000X0.212500X-0.155000X-0.212500X0*%
%TD*%
%TA.AperFunction,SMDPad,CuDef*%
%ADD21RoundRect,0.155000X-0.155000X0.212500X-0.155000X-0.212500X0.155000X-0.212500X0.155000X0.212500X0*%
%TD*%
%TA.AperFunction,SMDPad,CuDef*%
%ADD22R,1.050000X1.300000*%
%TD*%
%TA.AperFunction,SMDPad,CuDef*%
%ADD23RoundRect,0.160000X0.160000X-0.197500X0.160000X0.197500X-0.160000X0.197500X-0.160000X-0.197500X0*%
%TD*%
%TA.AperFunction,SMDPad,CuDef*%
%ADD24RoundRect,0.160000X-0.160000X0.197500X-0.160000X-0.197500X0.160000X-0.197500X0.160000X0.197500X0*%
%TD*%
%TA.AperFunction,SMDPad,CuDef*%
%ADD25RoundRect,0.250000X0.337500X0.475000X-0.337500X0.475000X-0.337500X-0.475000X0.337500X-0.475000X0*%
%TD*%
%TA.AperFunction,SMDPad,CuDef*%
%ADD26RoundRect,0.155000X-0.212500X-0.155000X0.212500X-0.155000X0.212500X0.155000X-0.212500X0.155000X0*%
%TD*%
%TA.AperFunction,SMDPad,CuDef*%
%ADD27RoundRect,0.250000X-0.337500X-0.475000X0.337500X-0.475000X0.337500X0.475000X-0.337500X0.475000X0*%
%TD*%
%TA.AperFunction,SMDPad,CuDef*%
%ADD28RoundRect,0.155000X0.212500X0.155000X-0.212500X0.155000X-0.212500X-0.155000X0.212500X-0.155000X0*%
%TD*%
%TA.AperFunction,SMDPad,CuDef*%
%ADD29RoundRect,0.237500X-0.237500X0.250000X-0.237500X-0.250000X0.237500X-0.250000X0.237500X0.250000X0*%
%TD*%
%TA.AperFunction,SMDPad,CuDef*%
%ADD30RoundRect,0.150000X-0.512500X-0.150000X0.512500X-0.150000X0.512500X0.150000X-0.512500X0.150000X0*%
%TD*%
%TA.AperFunction,ViaPad*%
%ADD31C,0.600000*%
%TD*%
%TA.AperFunction,ViaPad*%
%ADD32C,0.500000*%
%TD*%
%TA.AperFunction,Conductor*%
%ADD33C,0.254000*%
%TD*%
%TA.AperFunction,Conductor*%
%ADD34C,0.508000*%
%TD*%
%TA.AperFunction,Conductor*%
%ADD35C,0.267200*%
%TD*%
%TA.AperFunction,Conductor*%
%ADD36C,0.203200*%
%TD*%
G04 APERTURE END LIST*
D10*
%TO.P,TP2,1,1*%
%TO.N,VBUS*%
X85775000Y-94275000D03*
%TD*%
D11*
%TO.P,R2,1*%
%TO.N,/CONN_D-*%
X96537500Y-83705000D03*
%TO.P,R2,2*%
%TO.N,/USB_D-*%
X97732500Y-83705000D03*
%TD*%
D12*
%TO.P,J2,1,Pin_1*%
%TO.N,VBUS*%
X99345000Y-95745000D03*
D13*
%TO.P,J2,2,Pin_2*%
%TO.N,GND*%
X101885000Y-95745000D03*
%TO.P,J2,3,Pin_3*%
%TO.N,/VOUTL*%
X104425000Y-95745000D03*
%TO.P,J2,4,Pin_4*%
%TO.N,/VOUTR*%
X106965000Y-95745000D03*
%TD*%
D14*
%TO.P,D1,1*%
%TO.N,GND*%
X84523300Y-88300200D03*
%TO.P,D1,2*%
%TO.N,/CONN_D-*%
X84523300Y-86700000D03*
%TD*%
D11*
%TO.P,R1,1*%
%TO.N,/CONN_D+*%
X96537500Y-82615000D03*
%TO.P,R1,2*%
%TO.N,/USB_D+*%
X97732500Y-82615000D03*
%TD*%
D15*
%TO.P,U1,1,D+*%
%TO.N,/USB_D+*%
X99565000Y-83020000D03*
%TO.P,U1,2,D-*%
%TO.N,/USB_D-*%
X99565000Y-83670000D03*
%TO.P,U1,3,VBUS*%
%TO.N,VBUS*%
X99565000Y-84320000D03*
%TO.P,U1,4,DGNDU*%
%TO.N,GND*%
X99565000Y-84970000D03*
%TO.P,U1,5,HID0*%
%TO.N,/HID0*%
X99565000Y-85620000D03*
%TO.P,U1,6,HID1*%
%TO.N,/HID1*%
X99565000Y-86270000D03*
%TO.P,U1,7,HID2*%
%TO.N,/HID2*%
X99565000Y-86920000D03*
%TO.P,U1,8,SEL0*%
%TO.N,VDDI*%
X99565000Y-87570000D03*
%TO.P,U1,9,SEL1*%
X99565000Y-88220000D03*
%TO.P,U1,10,VCCCI*%
%TO.N,3V7*%
X99565000Y-88870000D03*
%TO.P,U1,11,AGNDC*%
%TO.N,GND*%
X99565000Y-89520000D03*
%TO.P,U1,12,VINL*%
%TO.N,/VINL*%
X99565000Y-90170000D03*
%TO.P,U1,13,VINR*%
%TO.N,/VINR*%
X99565000Y-90820000D03*
%TO.P,U1,14,VCOM*%
%TO.N,/VCOM*%
X99565000Y-91470000D03*
%TO.P,U1,15,VOUTR*%
%TO.N,/VOUTR*%
X106765000Y-91470000D03*
%TO.P,U1,16,VOUTL*%
%TO.N,/VOUTL*%
X106765000Y-90820000D03*
%TO.P,U1,17,VCCP1I*%
%TO.N,/VCCP1I*%
X106765000Y-90170000D03*
%TO.P,U1,18,AGNDP*%
%TO.N,GND*%
X106765000Y-89520000D03*
%TO.P,U1,19,VCCP2I*%
%TO.N,/VCCP2I*%
X106765000Y-88870000D03*
%TO.P,U1,20,XTO*%
%TO.N,/XTO*%
X106765000Y-88220000D03*
%TO.P,U1,21,XTI*%
%TO.N,/XTI*%
X106765000Y-87570000D03*
%TO.P,U1,22,AGNDX*%
%TO.N,GND*%
X106765000Y-86920000D03*
%TO.P,U1,23,VCCXI*%
%TO.N,/VCCXI*%
X106765000Y-86270000D03*
%TO.P,U1,24,DIN*%
%TO.N,unconnected-(U1-DIN-Pad24)*%
X106765000Y-85620000D03*
%TO.P,U1,25,DOUT*%
%TO.N,unconnected-(U1-DOUT-Pad25)*%
X106765000Y-84970000D03*
%TO.P,U1,26,DGND*%
%TO.N,GND*%
X106765000Y-84320000D03*
%TO.P,U1,27,VDDI*%
%TO.N,VDDI*%
X106765000Y-83670000D03*
%TO.P,U1,28,~{SSPND}*%
%TO.N,/~{SSPND}*%
X106765000Y-83020000D03*
%TD*%
D16*
%TO.P,R3,1*%
%TO.N,/VINR*%
X97765500Y-92241000D03*
%TO.P,R3,2*%
%TO.N,GND*%
X96570500Y-92241000D03*
%TD*%
D11*
%TO.P,R7,1*%
%TO.N,CGND*%
X76327500Y-76365000D03*
%TO.P,R7,2*%
%TO.N,GND*%
X77522500Y-76365000D03*
%TD*%
D17*
%TO.P,C6,1*%
%TO.N,3V7*%
X97095000Y-88542500D03*
%TO.P,C6,2*%
%TO.N,GND*%
X97095000Y-90617500D03*
%TD*%
D12*
%TO.P,J1,1,VBUS*%
%TO.N,VUSB_CONN*%
X81250000Y-88795000D03*
D18*
%TO.P,J1,2,D-*%
%TO.N,/CONN_D-*%
X81250000Y-86295000D03*
%TO.P,J1,3,D+*%
%TO.N,/CONN_D+*%
X79250000Y-86295000D03*
%TO.P,J1,4,GND*%
%TO.N,GND*%
X79250000Y-88795000D03*
D19*
%TO.P,J1,5,Shield*%
%TO.N,CGND*%
X76540000Y-93565000D03*
X76540000Y-81525000D03*
%TD*%
D20*
%TO.P,C11,1*%
%TO.N,VBUS*%
X85735000Y-92232500D03*
%TO.P,C11,2*%
%TO.N,GND*%
X85735000Y-91097500D03*
%TD*%
D21*
%TO.P,C3,1*%
%TO.N,/VCCP2I*%
X108705000Y-89337500D03*
%TO.P,C3,2*%
%TO.N,GND*%
X108705000Y-90472500D03*
%TD*%
D22*
%TO.P,Y1,1,1*%
%TO.N,/XTO*%
X113115000Y-89405000D03*
%TO.P,Y1,2,2*%
%TO.N,GND*%
X113115000Y-87105000D03*
%TO.P,Y1,3,3*%
%TO.N,/XTI*%
X111365000Y-87105000D03*
%TO.P,Y1,4,4*%
%TO.N,GND*%
X111365000Y-89405000D03*
%TD*%
D14*
%TO.P,D2,1*%
%TO.N,GND*%
X84523400Y-81639800D03*
%TO.P,D2,2*%
%TO.N,/CONN_D+*%
X84523400Y-83240000D03*
%TD*%
D23*
%TO.P,R5,1*%
%TO.N,/XTO*%
X109745000Y-88592500D03*
%TO.P,R5,2*%
%TO.N,/XTI*%
X109745000Y-87397500D03*
%TD*%
D24*
%TO.P,R10,1*%
%TO.N,3V7*%
X93605000Y-88087500D03*
%TO.P,R10,2*%
%TO.N,/ADJ*%
X93605000Y-89282500D03*
%TD*%
D25*
%TO.P,C12,1*%
%TO.N,3V7*%
X91802500Y-85475000D03*
%TO.P,C12,2*%
%TO.N,GND*%
X89727500Y-85475000D03*
%TD*%
D21*
%TO.P,C5,1*%
%TO.N,VDDI*%
X108700000Y-83267500D03*
%TO.P,C5,2*%
%TO.N,GND*%
X108700000Y-84402500D03*
%TD*%
D20*
%TO.P,C13,1*%
%TO.N,VBUS*%
X88185000Y-89692500D03*
%TO.P,C13,2*%
%TO.N,GND*%
X88185000Y-88557500D03*
%TD*%
D26*
%TO.P,C9,1*%
%TO.N,/XTI*%
X111717500Y-85635000D03*
%TO.P,C9,2*%
%TO.N,GND*%
X112852500Y-85635000D03*
%TD*%
D16*
%TO.P,R9,1*%
%TO.N,/ADJ*%
X91482500Y-92225000D03*
%TO.P,R9,2*%
%TO.N,GND*%
X90287500Y-92225000D03*
%TD*%
D21*
%TO.P,C4,1*%
%TO.N,/VCCXI*%
X108705000Y-85711500D03*
%TO.P,C4,2*%
%TO.N,GND*%
X108705000Y-86846500D03*
%TD*%
D27*
%TO.P,C10,1*%
%TO.N,CGND*%
X75887500Y-77995000D03*
%TO.P,C10,2*%
%TO.N,GND*%
X77962500Y-77995000D03*
%TD*%
D16*
%TO.P,R11,1*%
%TO.N,/ADJ*%
X91482500Y-91045000D03*
%TO.P,R11,2*%
%TO.N,GND*%
X90287500Y-91045000D03*
%TD*%
D10*
%TO.P,TP1,1,1*%
%TO.N,3V7*%
X93955000Y-85575000D03*
%TD*%
D16*
%TO.P,R4,1*%
%TO.N,/VINL*%
X97765500Y-93351000D03*
%TO.P,R4,2*%
%TO.N,GND*%
X96570500Y-93351000D03*
%TD*%
D12*
%TO.P,J3,1,Pin_1*%
%TO.N,/HID0*%
X99345000Y-77965000D03*
D13*
%TO.P,J3,2,Pin_2*%
%TO.N,/HID1*%
X101885000Y-77965000D03*
%TO.P,J3,3,Pin_3*%
%TO.N,/HID2*%
X104425000Y-77965000D03*
%TO.P,J3,4,Pin_4*%
%TO.N,/~{SSPND}*%
X106965000Y-77965000D03*
%TD*%
D16*
%TO.P,R6,1*%
%TO.N,VDDI*%
X97732500Y-81495000D03*
%TO.P,R6,2*%
%TO.N,/CONN_D+*%
X96537500Y-81495000D03*
%TD*%
D28*
%TO.P,C8,1*%
%TO.N,/XTO*%
X112852500Y-90895000D03*
%TO.P,C8,2*%
%TO.N,GND*%
X111717500Y-90895000D03*
%TD*%
D29*
%TO.P,R8,1*%
%TO.N,VUSB_CONN*%
X84305000Y-90752500D03*
%TO.P,R8,2*%
%TO.N,VBUS*%
X84305000Y-92577500D03*
%TD*%
D30*
%TO.P,U2,1,IN*%
%TO.N,VBUS*%
X89717500Y-87700000D03*
%TO.P,U2,2,GND*%
%TO.N,GND*%
X89717500Y-88650000D03*
%TO.P,U2,3,EN*%
%TO.N,VBUS*%
X89717500Y-89600000D03*
%TO.P,U2,4,ADJ*%
%TO.N,/ADJ*%
X91992500Y-89600000D03*
%TO.P,U2,5,OUT*%
%TO.N,3V7*%
X91992500Y-87700000D03*
%TD*%
D31*
%TO.N,/VCOM*%
X99565000Y-92100000D03*
%TO.N,GND*%
X74676000Y-88392000D03*
X90932000Y-78232000D03*
X87500000Y-88550000D03*
X71628000Y-76708000D03*
X70104000Y-78232000D03*
X71628000Y-78232000D03*
X86868000Y-76708000D03*
X111760000Y-80264000D03*
X86868000Y-78232000D03*
X80772000Y-82804000D03*
D32*
X85050000Y-88850000D03*
D31*
X74676000Y-85344000D03*
X82804000Y-97028000D03*
X92456000Y-78232000D03*
X82296000Y-82804000D03*
X71628000Y-89916000D03*
X81280000Y-95504000D03*
X113284000Y-94488000D03*
X70104000Y-83820000D03*
X110236000Y-96012000D03*
D32*
X109300000Y-84375000D03*
D31*
X90932000Y-79756000D03*
X110236000Y-81788000D03*
X68580000Y-88392000D03*
X73152000Y-95504000D03*
X113284000Y-78740000D03*
X74676000Y-98552000D03*
X111760000Y-96012000D03*
X101150000Y-85000000D03*
X110236000Y-80264000D03*
X79756000Y-98552000D03*
X70104000Y-88392000D03*
X74676000Y-86868000D03*
X68580000Y-86868000D03*
X71628000Y-79756000D03*
X89408000Y-76708000D03*
X95800000Y-93350000D03*
D32*
X88239600Y-86360000D03*
D31*
X68580000Y-76708000D03*
X79000000Y-78000000D03*
X79756000Y-95504000D03*
X68580000Y-89916000D03*
X70104000Y-86868000D03*
X111760000Y-97536000D03*
X82804000Y-95504000D03*
X68580000Y-98552000D03*
X112850000Y-84950000D03*
X110236000Y-94488000D03*
X111760000Y-83312000D03*
X85344000Y-78232000D03*
X74676000Y-79756000D03*
X70104000Y-95504000D03*
X73152000Y-97028000D03*
X73152000Y-89916000D03*
X73152000Y-98552000D03*
X100975000Y-88550000D03*
X74676000Y-83820000D03*
X109400000Y-90500000D03*
X113284000Y-80264000D03*
X80772000Y-76708000D03*
X110236000Y-78740000D03*
X73152000Y-79756000D03*
X81280000Y-97028000D03*
X92456000Y-76708000D03*
X68580000Y-78232000D03*
X73152000Y-88392000D03*
X78232000Y-97028000D03*
X70104000Y-97028000D03*
X82804000Y-98552000D03*
X113284000Y-81788000D03*
X68580000Y-95504000D03*
X80772000Y-90932000D03*
X113284000Y-96012000D03*
X71628000Y-98552000D03*
X68580000Y-83820000D03*
X95504000Y-76708000D03*
X70104000Y-76708000D03*
D32*
X86563200Y-87477600D03*
D31*
X89550000Y-91050000D03*
X74676000Y-95504000D03*
X111760000Y-94488000D03*
X110236000Y-92964000D03*
X113284000Y-92964000D03*
X71628000Y-83820000D03*
X89408000Y-78232000D03*
X86868000Y-79756000D03*
X80772000Y-92456000D03*
X103987600Y-90982800D03*
X70104000Y-98552000D03*
X78232000Y-95504000D03*
X93980000Y-78232000D03*
X89408000Y-79756000D03*
X82296000Y-79756000D03*
X79756000Y-97028000D03*
X105050000Y-89450000D03*
X68580000Y-85344000D03*
X74676000Y-89916000D03*
X95800000Y-90600000D03*
X71628000Y-97028000D03*
X81280000Y-98552000D03*
X111760000Y-81788000D03*
X73152000Y-83820000D03*
X73152000Y-78232000D03*
X71628000Y-88392000D03*
X70104000Y-79756000D03*
X70104000Y-91440000D03*
X88725000Y-85475000D03*
X95504000Y-79756000D03*
X73152000Y-76708000D03*
D32*
X109400000Y-86400000D03*
D31*
X95504000Y-78232000D03*
X70104000Y-85344000D03*
X95800000Y-92250000D03*
X71628000Y-86868000D03*
X74676000Y-97028000D03*
X79248000Y-90932000D03*
X73152000Y-86868000D03*
D32*
X101295200Y-82956400D03*
D31*
X83820000Y-78232000D03*
X103886000Y-89916000D03*
X68580000Y-97028000D03*
X82296000Y-92456000D03*
X79248000Y-92456000D03*
X92456000Y-79756000D03*
X73152000Y-91440000D03*
X70104000Y-89916000D03*
X74676000Y-78232000D03*
X85344000Y-79756000D03*
X71628000Y-85344000D03*
X82296000Y-90932000D03*
X68580000Y-79756000D03*
X79248000Y-82804000D03*
X71628000Y-91440000D03*
X93980000Y-79756000D03*
X83820000Y-76708000D03*
X82296000Y-78232000D03*
X89550000Y-92250000D03*
D32*
X87680800Y-87172800D03*
D31*
X85025000Y-81050000D03*
X74676000Y-76708000D03*
X86400000Y-91100000D03*
X110236000Y-97536000D03*
X82296000Y-76708000D03*
X78232000Y-98552000D03*
X111760000Y-78740000D03*
X113284000Y-83312000D03*
X83820000Y-79756000D03*
X68580000Y-91440000D03*
X80772000Y-78232000D03*
X111760000Y-92964000D03*
X73152000Y-85344000D03*
X85344000Y-76708000D03*
X110236000Y-83312000D03*
X71628000Y-95504000D03*
X113284000Y-97536000D03*
X90932000Y-76708000D03*
X80772000Y-79756000D03*
X111700000Y-91550000D03*
X93980000Y-76708000D03*
X74676000Y-91440000D03*
D32*
X87223600Y-86207600D03*
D31*
%TO.N,/VCCP1I*%
X105150000Y-90400000D03*
%TO.N,VBUS*%
X101150000Y-84050000D03*
X89750000Y-86900000D03*
D32*
%TO.N,/HID1*%
X101650000Y-86275000D03*
%TO.N,/HID2*%
X100930000Y-86920000D03*
%TO.N,/HID0*%
X102300000Y-85000000D03*
%TD*%
D33*
%TO.N,/VCOM*%
X99565000Y-92100000D02*
X99565000Y-91470000D01*
D34*
%TO.N,GND*%
X89575000Y-92225000D02*
X89550000Y-92250000D01*
D33*
X105120000Y-89520000D02*
X105050000Y-89450000D01*
D34*
X88185000Y-88557500D02*
X87507500Y-88557500D01*
D33*
X111717500Y-90895000D02*
X111717500Y-90617500D01*
X112852500Y-85635000D02*
X113115000Y-85897500D01*
X85025000Y-81050000D02*
X85025000Y-81138200D01*
X111717500Y-90617500D02*
X111365000Y-90265000D01*
D34*
X88277500Y-88650000D02*
X88185000Y-88557500D01*
X89727500Y-85475000D02*
X88725000Y-85475000D01*
D33*
X111365000Y-90265000D02*
X111365000Y-89405000D01*
X106765000Y-84320000D02*
X108020000Y-84320000D01*
D34*
X77962500Y-77995000D02*
X78995000Y-77995000D01*
D33*
X85025000Y-81138200D02*
X84523400Y-81639800D01*
X106765000Y-89520000D02*
X107720000Y-89520000D01*
D34*
X96570500Y-92241000D02*
X95809000Y-92241000D01*
D33*
X84523300Y-88300200D02*
X84523300Y-88323300D01*
D34*
X85735000Y-91097500D02*
X86397500Y-91097500D01*
D33*
X108700000Y-84402500D02*
X109272500Y-84402500D01*
X108020000Y-84320000D02*
X108102500Y-84402500D01*
D34*
X109372500Y-90472500D02*
X109400000Y-90500000D01*
X89717500Y-88650000D02*
X88277500Y-88650000D01*
X95817500Y-90617500D02*
X95800000Y-90600000D01*
X90287500Y-91045000D02*
X89555000Y-91045000D01*
D33*
X113115000Y-85897500D02*
X113115000Y-87105000D01*
X109272500Y-84402500D02*
X109300000Y-84375000D01*
D34*
X90287500Y-92225000D02*
X89575000Y-92225000D01*
D33*
X107880000Y-86920000D02*
X106765000Y-86920000D01*
X107720000Y-89520000D02*
X108672500Y-90472500D01*
X108672500Y-90472500D02*
X108705000Y-90472500D01*
D34*
X111717500Y-90895000D02*
X111717500Y-91532500D01*
D33*
X106765000Y-89520000D02*
X105120000Y-89520000D01*
D34*
X77522500Y-76365000D02*
X77522500Y-76622500D01*
X78995000Y-77995000D02*
X79000000Y-78000000D01*
X112852500Y-85635000D02*
X112852500Y-84952500D01*
D33*
X84523300Y-88323300D02*
X85050000Y-88850000D01*
X99565000Y-84970000D02*
X101120000Y-84970000D01*
X84523300Y-88300200D02*
X84523300Y-88473300D01*
D34*
X95809000Y-92241000D02*
X95800000Y-92250000D01*
D33*
X108953500Y-86846500D02*
X109400000Y-86400000D01*
X107953500Y-86846500D02*
X107880000Y-86920000D01*
X101120000Y-84970000D02*
X101150000Y-85000000D01*
D34*
X86397500Y-91097500D02*
X86400000Y-91100000D01*
X89555000Y-91045000D02*
X89550000Y-91050000D01*
X87507500Y-88557500D02*
X87500000Y-88550000D01*
X112852500Y-84952500D02*
X112850000Y-84950000D01*
X96570500Y-93351000D02*
X95801000Y-93351000D01*
X77522500Y-76622500D02*
X77962500Y-77062500D01*
X108705000Y-90472500D02*
X109372500Y-90472500D01*
X97095000Y-90617500D02*
X95817500Y-90617500D01*
X111717500Y-91532500D02*
X111700000Y-91550000D01*
D33*
X108705000Y-86846500D02*
X108953500Y-86846500D01*
X108102500Y-84402500D02*
X108700000Y-84402500D01*
X108705000Y-86846500D02*
X107953500Y-86846500D01*
D34*
X95801000Y-93351000D02*
X95800000Y-93350000D01*
X77962500Y-77062500D02*
X77962500Y-77995000D01*
D33*
%TO.N,/VCCP1I*%
X105150000Y-90400000D02*
X105380000Y-90170000D01*
X105380000Y-90170000D02*
X106765000Y-90170000D01*
%TO.N,/VCCP2I*%
X107970000Y-88870000D02*
X106765000Y-88870000D01*
X108437500Y-89337500D02*
X107970000Y-88870000D01*
X108705000Y-89337500D02*
X108437500Y-89337500D01*
%TO.N,/VCCXI*%
X108188500Y-85711500D02*
X108000000Y-85900000D01*
X108000000Y-86100000D02*
X107830000Y-86270000D01*
X108705000Y-85711500D02*
X108188500Y-85711500D01*
X108000000Y-85900000D02*
X108000000Y-86100000D01*
X107830000Y-86270000D02*
X106765000Y-86270000D01*
%TO.N,VDDI*%
X108432500Y-83267500D02*
X108700000Y-83267500D01*
X101761000Y-87570000D02*
X104340500Y-84990500D01*
X100845000Y-81495000D02*
X97732500Y-81495000D01*
X104340500Y-84990500D02*
X105661000Y-83670000D01*
X99565000Y-87570000D02*
X99565000Y-88220000D01*
X105661000Y-83670000D02*
X106765000Y-83670000D01*
X106765000Y-83670000D02*
X108030000Y-83670000D01*
X99565000Y-87570000D02*
X101761000Y-87570000D01*
X108030000Y-83670000D02*
X108432500Y-83267500D01*
X104340500Y-84990500D02*
X100845000Y-81495000D01*
D34*
%TO.N,VBUS*%
X88275000Y-94275000D02*
X85775000Y-94275000D01*
D33*
X100880000Y-84320000D02*
X101150000Y-84050000D01*
D34*
X84305000Y-93805000D02*
X84305000Y-92577500D01*
X88277500Y-89600000D02*
X88185000Y-89692500D01*
X85217500Y-92232500D02*
X85735000Y-92232500D01*
X90900000Y-88050000D02*
X90550000Y-87700000D01*
X87550000Y-91700000D02*
X87017500Y-92232500D01*
X84305000Y-92577500D02*
X84872500Y-92577500D01*
X84872500Y-92577500D02*
X85217500Y-92232500D01*
X99345000Y-95745000D02*
X89745000Y-95745000D01*
X90500000Y-89600000D02*
X90900000Y-89200000D01*
X90900000Y-89200000D02*
X90900000Y-88050000D01*
X85775000Y-94275000D02*
X84775000Y-94275000D01*
X87550000Y-90327500D02*
X87550000Y-91700000D01*
X84775000Y-94275000D02*
X84305000Y-93805000D01*
X87017500Y-92232500D02*
X85735000Y-92232500D01*
X89745000Y-95745000D02*
X88275000Y-94275000D01*
X89717500Y-89600000D02*
X88277500Y-89600000D01*
D33*
X99565000Y-84320000D02*
X100880000Y-84320000D01*
D34*
X89717500Y-86932500D02*
X89750000Y-86900000D01*
X89717500Y-87700000D02*
X89717500Y-86932500D01*
X88185000Y-89692500D02*
X87550000Y-90327500D01*
X90550000Y-87700000D02*
X89717500Y-87700000D01*
X89717500Y-89600000D02*
X90500000Y-89600000D01*
D33*
%TO.N,/XTO*%
X110400000Y-88300000D02*
X112900000Y-88300000D01*
X109745000Y-88592500D02*
X109745000Y-88445000D01*
X112852500Y-90547500D02*
X113115000Y-90285000D01*
X110107500Y-88592500D02*
X110400000Y-88300000D01*
X112852500Y-90895000D02*
X112852500Y-90547500D01*
X109745000Y-88592500D02*
X110107500Y-88592500D01*
X109520000Y-88220000D02*
X106765000Y-88220000D01*
X113115000Y-90285000D02*
X113115000Y-89405000D01*
X113115000Y-88515000D02*
X113115000Y-89405000D01*
X109745000Y-88445000D02*
X109520000Y-88220000D01*
X112900000Y-88300000D02*
X113115000Y-88515000D01*
%TO.N,/XTI*%
X111717500Y-85635000D02*
X111665000Y-85635000D01*
X109330000Y-87570000D02*
X106765000Y-87570000D01*
X111665000Y-85635000D02*
X111365000Y-85935000D01*
X111365000Y-87105000D02*
X110695000Y-87105000D01*
X111365000Y-85935000D02*
X111365000Y-87105000D01*
X109745000Y-87397500D02*
X109502500Y-87397500D01*
X110695000Y-87105000D02*
X110400000Y-87400000D01*
X110397500Y-87397500D02*
X109745000Y-87397500D01*
X110400000Y-87400000D02*
X110397500Y-87397500D01*
X109502500Y-87397500D02*
X109330000Y-87570000D01*
D34*
%TO.N,CGND*%
X76327500Y-77122500D02*
X76327500Y-76365000D01*
X76540000Y-93565000D02*
X76540000Y-81525000D01*
X76540000Y-81525000D02*
X76540000Y-79740000D01*
X75887500Y-77562500D02*
X76327500Y-77122500D01*
X75887500Y-79087500D02*
X75887500Y-77995000D01*
X75887500Y-77995000D02*
X75887500Y-77562500D01*
X76540000Y-79740000D02*
X75887500Y-79087500D01*
D35*
%TO.N,/CONN_D-*%
X80485201Y-85022129D02*
X81072130Y-84435200D01*
X95691449Y-83395200D02*
X96001249Y-83705000D01*
X84600000Y-85235200D02*
X86697424Y-85235200D01*
D33*
X84523300Y-86700000D02*
X84523300Y-85311900D01*
D35*
X81250000Y-86295000D02*
X80485201Y-85530201D01*
X88537424Y-83395200D02*
X95691449Y-83395200D01*
X83202576Y-85235200D02*
X84600000Y-85235200D01*
X86697424Y-85235200D02*
X88537424Y-83395200D01*
D33*
X84523300Y-85311900D02*
X84600000Y-85235200D01*
D35*
X80485201Y-85530201D02*
X80485201Y-85022129D01*
X82402576Y-84435200D02*
X83202576Y-85235200D01*
X81072130Y-84435200D02*
X82402576Y-84435200D01*
X96001249Y-83705000D02*
X96537500Y-83705000D01*
%TO.N,/CONN_D+*%
X83397424Y-84764800D02*
X84500000Y-84764800D01*
X84500000Y-84764800D02*
X86502576Y-84764800D01*
D33*
X84523400Y-84741400D02*
X84500000Y-84764800D01*
D35*
X79250000Y-86295000D02*
X80014799Y-85530201D01*
X88342576Y-82924800D02*
X95691449Y-82924800D01*
D33*
X96537500Y-81495000D02*
X96537500Y-82615000D01*
X84523400Y-83240000D02*
X84523400Y-84741400D01*
D35*
X80877282Y-83964800D02*
X82597424Y-83964800D01*
X80014799Y-84827283D02*
X80877282Y-83964800D01*
X86502576Y-84764800D02*
X88342576Y-82924800D01*
X80014799Y-85530201D02*
X80014799Y-84827283D01*
X96001249Y-82615000D02*
X96537500Y-82615000D01*
X95691449Y-82924800D02*
X96001249Y-82615000D01*
X82597424Y-83964800D02*
X83397424Y-84764800D01*
D34*
%TO.N,VUSB_CONN*%
X84305000Y-90752500D02*
X83652500Y-90752500D01*
X81695000Y-88795000D02*
X81250000Y-88795000D01*
X83652500Y-90752500D02*
X81695000Y-88795000D01*
D33*
%TO.N,/HID1*%
X99565000Y-86270000D02*
X101645000Y-86270000D01*
X101645000Y-86270000D02*
X101650000Y-86275000D01*
%TO.N,/HID2*%
X99565000Y-86920000D02*
X100930000Y-86920000D01*
%TO.N,/HID0*%
X99572000Y-85627000D02*
X101673000Y-85627000D01*
X99565000Y-85620000D02*
X99572000Y-85627000D01*
X101673000Y-85627000D02*
X102300000Y-85000000D01*
%TO.N,/VOUTR*%
X106765000Y-95545000D02*
X106965000Y-95745000D01*
X106765000Y-91470000D02*
X106765000Y-95545000D01*
%TO.N,/~{SSPND}*%
X106965000Y-79235000D02*
X106965000Y-77965000D01*
X106765000Y-83020000D02*
X106765000Y-79435000D01*
X106765000Y-79435000D02*
X106965000Y-79235000D01*
%TO.N,/VOUTL*%
X104425000Y-92031000D02*
X104425000Y-95745000D01*
X105636000Y-90820000D02*
X104425000Y-92031000D01*
X106765000Y-90820000D02*
X105636000Y-90820000D01*
%TO.N,/USB_D+*%
X98420000Y-83020000D02*
X99565000Y-83020000D01*
X98015000Y-82615000D02*
X98420000Y-83020000D01*
X97732500Y-82615000D02*
X98015000Y-82615000D01*
%TO.N,/USB_D-*%
X99565000Y-83670000D02*
X97767500Y-83670000D01*
X97767500Y-83670000D02*
X97732500Y-83705000D01*
D36*
%TO.N,/VINR*%
X98200000Y-91200000D02*
X98580000Y-90820000D01*
X98200000Y-91806500D02*
X98200000Y-91200000D01*
X98580000Y-90820000D02*
X99565000Y-90820000D01*
X97765500Y-92241000D02*
X98200000Y-91806500D01*
%TO.N,/VINL*%
X101200000Y-92400000D02*
X100249000Y-93351000D01*
X100643200Y-90170000D02*
X101200000Y-90726800D01*
X100249000Y-93351000D02*
X97765500Y-93351000D01*
X99565000Y-90170000D02*
X100643200Y-90170000D01*
X101200000Y-90726800D02*
X101200000Y-92400000D01*
D34*
%TO.N,/ADJ*%
X91482500Y-91045000D02*
X91482500Y-90667500D01*
X91482500Y-90667500D02*
X92000000Y-90150000D01*
X91482500Y-92225000D02*
X91482500Y-91045000D01*
X92000000Y-90150000D02*
X91992500Y-90142500D01*
X91992500Y-90142500D02*
X91992500Y-89600000D01*
X91992500Y-89600000D02*
X93287500Y-89600000D01*
X93287500Y-89600000D02*
X93605000Y-89282500D01*
%TD*%
%TA.AperFunction,Conductor*%
%TO.N,/VINR*%
G36*
X99513129Y-90809785D02*
G01*
X99520659Y-90814629D01*
X99522559Y-90823380D01*
X99517715Y-90830911D01*
X99513966Y-90832628D01*
X98694746Y-91043776D01*
X98685880Y-91042522D01*
X98685797Y-91042473D01*
X98571754Y-90973898D01*
X98569510Y-90972144D01*
X98437124Y-90839758D01*
X98433697Y-90831485D01*
X98437124Y-90823212D01*
X98439083Y-90821634D01*
X98686133Y-90663422D01*
X98694520Y-90661763D01*
X99513129Y-90809785D01*
G37*
%TD.AperFunction*%
%TD*%
%TA.AperFunction,Conductor*%
%TO.N,/VCOM*%
G36*
X99691647Y-91503427D02*
G01*
X99694551Y-91508241D01*
X99839020Y-91975038D01*
X99838192Y-91983954D01*
X99832354Y-91989293D01*
X99569511Y-92099115D01*
X99560556Y-92099142D01*
X99560489Y-92099115D01*
X99297645Y-91989293D01*
X99291333Y-91982941D01*
X99290979Y-91975039D01*
X99435449Y-91508240D01*
X99441169Y-91501351D01*
X99446626Y-91500000D01*
X99683374Y-91500000D01*
X99691647Y-91503427D01*
G37*
%TD.AperFunction*%
%TD*%
%TA.AperFunction,Conductor*%
%TO.N,3V7*%
G36*
X98050000Y-88650000D02*
G01*
X100376000Y-88650000D01*
X100443039Y-88669685D01*
X100488794Y-88722489D01*
X100500000Y-88774000D01*
X100500000Y-88967300D01*
X100480315Y-89034339D01*
X100427511Y-89080094D01*
X100376000Y-89091300D01*
X98669935Y-89091300D01*
X98649677Y-89095329D01*
X98638178Y-89097617D01*
X98613987Y-89100000D01*
X98049999Y-89100000D01*
X97736319Y-89413681D01*
X97675073Y-89447123D01*
X96400000Y-89300000D01*
X96100000Y-88950000D01*
X96100000Y-88100000D01*
X96550000Y-87800000D01*
X97850000Y-87800000D01*
X98050000Y-88650000D01*
G37*
%TD.AperFunction*%
%TD*%
%TA.AperFunction,Conductor*%
%TO.N,/VCOM*%
G36*
X99573253Y-91477290D02*
G01*
X99784388Y-91689363D01*
X99787797Y-91697644D01*
X99786824Y-91702290D01*
X99695061Y-91912972D01*
X99688615Y-91919189D01*
X99684334Y-91920000D01*
X99445666Y-91920000D01*
X99437393Y-91916573D01*
X99434939Y-91912972D01*
X99343175Y-91702290D01*
X99343013Y-91693337D01*
X99345608Y-91689366D01*
X99556710Y-91477326D01*
X99564974Y-91473882D01*
X99573253Y-91477290D01*
G37*
%TD.AperFunction*%
%TD*%
%TA.AperFunction,Conductor*%
%TO.N,/VOUTL*%
G36*
X104552903Y-94048427D02*
G01*
X104555183Y-94051647D01*
X105204970Y-95408593D01*
X105205452Y-95417535D01*
X105199470Y-95424199D01*
X105198906Y-95424451D01*
X104429489Y-95744134D01*
X104420534Y-95744143D01*
X104420511Y-95744134D01*
X103651093Y-95424451D01*
X103644768Y-95418112D01*
X103644777Y-95409157D01*
X103645017Y-95408617D01*
X104294817Y-94051646D01*
X104301481Y-94045665D01*
X104305370Y-94045000D01*
X104544630Y-94045000D01*
X104552903Y-94048427D01*
G37*
%TD.AperFunction*%
%TD*%
%TA.AperFunction,Conductor*%
%TO.N,/VOUTL*%
G36*
X106540758Y-90762146D02*
G01*
X106721880Y-90808668D01*
X106729040Y-90814045D01*
X106730301Y-90822911D01*
X106724924Y-90830071D01*
X106721880Y-90831332D01*
X105893896Y-91043999D01*
X105886313Y-91043394D01*
X105672028Y-90950061D01*
X105665811Y-90943615D01*
X105665000Y-90939334D01*
X105665000Y-90700665D01*
X105668427Y-90692392D01*
X105672024Y-90689940D01*
X105886315Y-90596604D01*
X105893893Y-90596000D01*
X106540758Y-90762146D01*
G37*
%TD.AperFunction*%
%TD*%
%TA.AperFunction,Conductor*%
%TO.N,VBUS*%
G36*
X98501946Y-94901938D02*
G01*
X99337712Y-95736722D01*
X99341144Y-95744993D01*
X99337722Y-95753268D01*
X99337712Y-95753278D01*
X98501946Y-96588061D01*
X98493671Y-96591483D01*
X98486961Y-96589363D01*
X97649983Y-96002493D01*
X97645176Y-95994937D01*
X97645000Y-95992913D01*
X97645000Y-95497086D01*
X97648427Y-95488813D01*
X97649983Y-95487506D01*
X98486962Y-94900635D01*
X98495702Y-94898692D01*
X98501946Y-94901938D01*
G37*
%TD.AperFunction*%
%TD*%
%TA.AperFunction,Conductor*%
%TO.N,/VINL*%
G36*
X98032436Y-93047220D02*
G01*
X98436470Y-93246184D01*
X98442377Y-93252912D01*
X98443000Y-93256679D01*
X98443000Y-93445320D01*
X98439573Y-93453593D01*
X98436469Y-93455816D01*
X98032438Y-93654778D01*
X98023502Y-93655359D01*
X98018328Y-93651828D01*
X97770865Y-93358544D01*
X97768150Y-93350012D01*
X97770866Y-93343455D01*
X98018329Y-93050170D01*
X98026281Y-93046059D01*
X98032436Y-93047220D01*
G37*
%TD.AperFunction*%
%TD*%
%TA.AperFunction,Conductor*%
%TO.N,3V7*%
G36*
X94620519Y-84419685D02*
G01*
X94635039Y-84430597D01*
X98107561Y-87462941D01*
X98145110Y-87521863D01*
X98150000Y-87556341D01*
X98150000Y-88650000D01*
X98050000Y-88650000D01*
X97850000Y-87800000D01*
X96550000Y-87800000D01*
X96100000Y-88100000D01*
X96100000Y-88950000D01*
X96400000Y-89300000D01*
X97675073Y-89447123D01*
X97674996Y-89447166D01*
X97648638Y-89450000D01*
X96185563Y-89450000D01*
X96119843Y-89431152D01*
X94950000Y-88700000D01*
X94949999Y-88699999D01*
X94949998Y-88699999D01*
X91480186Y-88657632D01*
X91413392Y-88637130D01*
X91368285Y-88583771D01*
X91357700Y-88533641D01*
X91357700Y-87989745D01*
X91357700Y-87989743D01*
X91327401Y-87876666D01*
X91326508Y-87873334D01*
X91266251Y-87768966D01*
X91266227Y-87768942D01*
X90886695Y-87389409D01*
X90853210Y-87328086D01*
X90850488Y-87306962D01*
X90797710Y-86053412D01*
X90797600Y-86048196D01*
X90797600Y-84762923D01*
X90817285Y-84695884D01*
X90847358Y-84663605D01*
X91166981Y-84424681D01*
X91232462Y-84400310D01*
X91241223Y-84400000D01*
X94553480Y-84400000D01*
X94620519Y-84419685D01*
G37*
%TD.AperFunction*%
%TD*%
%TA.AperFunction,Conductor*%
%TO.N,/VINL*%
G36*
X100443943Y-89959292D02*
G01*
X100716612Y-90106118D01*
X100722271Y-90113056D01*
X100721365Y-90121965D01*
X100719337Y-90124691D01*
X100586908Y-90257120D01*
X100586642Y-90257378D01*
X100444694Y-90390594D01*
X100436316Y-90393757D01*
X100433767Y-90393393D01*
X99609616Y-90180974D01*
X99602460Y-90175590D01*
X99601206Y-90166724D01*
X99606590Y-90159568D01*
X99609775Y-90158275D01*
X100435647Y-89958223D01*
X100443943Y-89959292D01*
G37*
%TD.AperFunction*%
%TD*%
%TA.AperFunction,Conductor*%
%TO.N,/VOUTR*%
G36*
X106773253Y-91477290D02*
G01*
X106984388Y-91689363D01*
X106987797Y-91697644D01*
X106986824Y-91702290D01*
X106895061Y-91912972D01*
X106888615Y-91919189D01*
X106884334Y-91920000D01*
X106645666Y-91920000D01*
X106637393Y-91916573D01*
X106634939Y-91912972D01*
X106543175Y-91702290D01*
X106543013Y-91693337D01*
X106545608Y-91689366D01*
X106756710Y-91477326D01*
X106764974Y-91473882D01*
X106773253Y-91477290D01*
G37*
%TD.AperFunction*%
%TD*%
%TA.AperFunction,Conductor*%
%TO.N,/VOUTR*%
G36*
X106893886Y-94088209D02*
G01*
X106895454Y-94090154D01*
X107742732Y-95407952D01*
X107744324Y-95416765D01*
X107739219Y-95424121D01*
X107737380Y-95425085D01*
X106969489Y-95744134D01*
X106960534Y-95744143D01*
X106960511Y-95744134D01*
X106189845Y-95423933D01*
X106183520Y-95417594D01*
X106183268Y-95409331D01*
X106635288Y-94092683D01*
X106641216Y-94085971D01*
X106646354Y-94084782D01*
X106885613Y-94084782D01*
X106893886Y-94088209D01*
G37*
%TD.AperFunction*%
%TD*%
%TA.AperFunction,Conductor*%
%TO.N,GND*%
G36*
X100343039Y-89319685D02*
G01*
X100388794Y-89372489D01*
X100400000Y-89424000D01*
X100400000Y-89617300D01*
X100380315Y-89684339D01*
X100327511Y-89730094D01*
X100276000Y-89741300D01*
X98669934Y-89741300D01*
X98610523Y-89753117D01*
X98610520Y-89753118D01*
X98543140Y-89798140D01*
X98498118Y-89865521D01*
X98497555Y-89866882D01*
X98493801Y-89871982D01*
X98491335Y-89875674D01*
X98491167Y-89875562D01*
X98462379Y-89914682D01*
X98000000Y-90299999D01*
X98000000Y-90916878D01*
X97980315Y-90983917D01*
X97963684Y-91004556D01*
X97955703Y-91012537D01*
X97955699Y-91012542D01*
X97925818Y-91064299D01*
X97925816Y-91064302D01*
X97915507Y-91082156D01*
X97915506Y-91082158D01*
X97915506Y-91082159D01*
X97894700Y-91159807D01*
X97894700Y-91159809D01*
X97894700Y-91216975D01*
X97875015Y-91284014D01*
X97845100Y-91316175D01*
X97633067Y-91475200D01*
X97567625Y-91499676D01*
X97558667Y-91500000D01*
X96723880Y-91500000D01*
X96677828Y-91491131D01*
X96277948Y-91331179D01*
X96223014Y-91288005D01*
X96200142Y-91221984D01*
X96200000Y-91216048D01*
X96200000Y-90083951D01*
X96219685Y-90016912D01*
X96272489Y-89971157D01*
X96277919Y-89968832D01*
X96677828Y-89808869D01*
X96723880Y-89800000D01*
X97799999Y-89800000D01*
X97800000Y-89800000D01*
X98422000Y-89333500D01*
X98487442Y-89309024D01*
X98496400Y-89308700D01*
X98613976Y-89308700D01*
X98613987Y-89308700D01*
X98634447Y-89307695D01*
X98658638Y-89305312D01*
X98664085Y-89304503D01*
X98666750Y-89304700D01*
X98677040Y-89302663D01*
X98677896Y-89302504D01*
X98678490Y-89302386D01*
X98678583Y-89302376D01*
X98680011Y-89302112D01*
X98680497Y-89302028D01*
X98680524Y-89302185D01*
X98702701Y-89300000D01*
X100276000Y-89300000D01*
X100343039Y-89319685D01*
G37*
%TD.AperFunction*%
%TD*%
%TA.AperFunction,Conductor*%
%TO.N,VDDI*%
G36*
X100382059Y-87368385D02*
G01*
X100427814Y-87421189D01*
X100439016Y-87473649D01*
X100432553Y-88318249D01*
X100412356Y-88385136D01*
X100359204Y-88430485D01*
X100308557Y-88441300D01*
X98817503Y-88441300D01*
X98750464Y-88421615D01*
X98704709Y-88368811D01*
X98694012Y-88328526D01*
X98617230Y-87483926D01*
X98630764Y-87415380D01*
X98679209Y-87365032D01*
X98740721Y-87348700D01*
X100315020Y-87348700D01*
X100382059Y-87368385D01*
G37*
%TD.AperFunction*%
%TD*%
M02*
