%TF.GenerationSoftware,KiCad,Pcbnew,8.0.5*%
%TF.CreationDate,2024-10-10T11:51:51-04:00*%
%TF.ProjectId,dac,6461632e-6b69-4636-9164-5f7063625858,rev?*%
%TF.SameCoordinates,Original*%
%TF.FileFunction,Copper,L2,Inr*%
%TF.FilePolarity,Positive*%
%FSLAX46Y46*%
G04 Gerber Fmt 4.6, Leading zero omitted, Abs format (unit mm)*
G04 Created by KiCad (PCBNEW 8.0.5) date 2024-10-10 11:51:51*
%MOMM*%
%LPD*%
G01*
G04 APERTURE LIST*
%TA.AperFunction,ComponentPad*%
%ADD10R,1.700000X1.700000*%
%TD*%
%TA.AperFunction,ComponentPad*%
%ADD11O,1.700000X1.700000*%
%TD*%
%TA.AperFunction,ComponentPad*%
%ADD12C,1.700000*%
%TD*%
%TA.AperFunction,ComponentPad*%
%ADD13C,3.500000*%
%TD*%
%TA.AperFunction,ViaPad*%
%ADD14C,0.600000*%
%TD*%
%TA.AperFunction,ViaPad*%
%ADD15C,0.500000*%
%TD*%
G04 APERTURE END LIST*
D10*
%TO.N,VBUS*%
%TO.C,J2*%
X99345000Y-95745000D03*
D11*
%TO.N,GND*%
X101885000Y-95745000D03*
%TO.N,/VOUTL*%
X104425000Y-95745000D03*
%TO.N,/VOUTR*%
X106965000Y-95745000D03*
%TD*%
D10*
%TO.N,VUSB_CONN*%
%TO.C,J1*%
X81250000Y-88795000D03*
D12*
%TO.N,/CONN_D-*%
X81250000Y-86295000D03*
%TO.N,/CONN_D+*%
X79250000Y-86295000D03*
%TO.N,GND*%
X79250000Y-88795000D03*
D13*
%TO.N,CGND*%
X76540000Y-93565000D03*
X76540000Y-81525000D03*
%TD*%
D10*
%TO.N,/HID0*%
%TO.C,J3*%
X99345000Y-77965000D03*
D11*
%TO.N,/HID1*%
X101885000Y-77965000D03*
%TO.N,/HID2*%
X104425000Y-77965000D03*
%TO.N,/~{SSPND}*%
X106965000Y-77965000D03*
%TD*%
D14*
%TO.N,/VCOM*%
X99565000Y-92100000D03*
%TO.N,GND*%
X74676000Y-88392000D03*
X90932000Y-78232000D03*
X87500000Y-88550000D03*
X71628000Y-76708000D03*
X70104000Y-78232000D03*
X71628000Y-78232000D03*
X86868000Y-76708000D03*
X111760000Y-80264000D03*
X86868000Y-78232000D03*
X80772000Y-82804000D03*
D15*
X85050000Y-88850000D03*
D14*
X74676000Y-85344000D03*
X82804000Y-97028000D03*
X92456000Y-78232000D03*
X82296000Y-82804000D03*
X71628000Y-89916000D03*
X81280000Y-95504000D03*
X113284000Y-94488000D03*
X70104000Y-83820000D03*
X110236000Y-96012000D03*
D15*
X109300000Y-84375000D03*
D14*
X90932000Y-79756000D03*
X110236000Y-81788000D03*
X68580000Y-88392000D03*
X73152000Y-95504000D03*
X113284000Y-78740000D03*
X74676000Y-98552000D03*
X111760000Y-96012000D03*
X101150000Y-85000000D03*
X110236000Y-80264000D03*
X79756000Y-98552000D03*
X70104000Y-88392000D03*
X74676000Y-86868000D03*
X68580000Y-86868000D03*
X71628000Y-79756000D03*
X89408000Y-76708000D03*
X95800000Y-93350000D03*
D15*
X88239600Y-86360000D03*
D14*
X68580000Y-76708000D03*
X79000000Y-78000000D03*
X79756000Y-95504000D03*
X68580000Y-89916000D03*
X70104000Y-86868000D03*
X111760000Y-97536000D03*
X82804000Y-95504000D03*
X68580000Y-98552000D03*
X112850000Y-84950000D03*
X110236000Y-94488000D03*
X111760000Y-83312000D03*
X85344000Y-78232000D03*
X74676000Y-79756000D03*
X70104000Y-95504000D03*
X73152000Y-97028000D03*
X73152000Y-89916000D03*
X73152000Y-98552000D03*
X100975000Y-88550000D03*
X74676000Y-83820000D03*
X109400000Y-90500000D03*
X113284000Y-80264000D03*
X80772000Y-76708000D03*
X110236000Y-78740000D03*
X73152000Y-79756000D03*
X81280000Y-97028000D03*
X92456000Y-76708000D03*
X68580000Y-78232000D03*
X73152000Y-88392000D03*
X78232000Y-97028000D03*
X70104000Y-97028000D03*
X82804000Y-98552000D03*
X113284000Y-81788000D03*
X68580000Y-95504000D03*
X80772000Y-90932000D03*
X113284000Y-96012000D03*
X71628000Y-98552000D03*
X68580000Y-83820000D03*
X95504000Y-76708000D03*
X70104000Y-76708000D03*
D15*
X86563200Y-87477600D03*
D14*
X89550000Y-91050000D03*
X74676000Y-95504000D03*
X111760000Y-94488000D03*
X110236000Y-92964000D03*
X113284000Y-92964000D03*
X71628000Y-83820000D03*
X89408000Y-78232000D03*
X86868000Y-79756000D03*
X80772000Y-92456000D03*
X103987600Y-90982800D03*
X70104000Y-98552000D03*
X78232000Y-95504000D03*
X93980000Y-78232000D03*
X89408000Y-79756000D03*
X82296000Y-79756000D03*
X79756000Y-97028000D03*
X105050000Y-89450000D03*
X68580000Y-85344000D03*
X74676000Y-89916000D03*
X95800000Y-90600000D03*
X71628000Y-97028000D03*
X81280000Y-98552000D03*
X111760000Y-81788000D03*
X73152000Y-83820000D03*
X73152000Y-78232000D03*
X71628000Y-88392000D03*
X70104000Y-79756000D03*
X70104000Y-91440000D03*
X88725000Y-85475000D03*
X95504000Y-79756000D03*
X73152000Y-76708000D03*
D15*
X109400000Y-86400000D03*
D14*
X95504000Y-78232000D03*
X70104000Y-85344000D03*
X95800000Y-92250000D03*
X71628000Y-86868000D03*
X74676000Y-97028000D03*
X79248000Y-90932000D03*
X73152000Y-86868000D03*
D15*
X101295200Y-82956400D03*
D14*
X83820000Y-78232000D03*
X103886000Y-89916000D03*
X68580000Y-97028000D03*
X82296000Y-92456000D03*
X79248000Y-92456000D03*
X92456000Y-79756000D03*
X73152000Y-91440000D03*
X70104000Y-89916000D03*
X74676000Y-78232000D03*
X85344000Y-79756000D03*
X71628000Y-85344000D03*
X82296000Y-90932000D03*
X68580000Y-79756000D03*
X79248000Y-82804000D03*
X71628000Y-91440000D03*
X93980000Y-79756000D03*
X83820000Y-76708000D03*
X82296000Y-78232000D03*
X89550000Y-92250000D03*
D15*
X87680800Y-87172800D03*
D14*
X85025000Y-81050000D03*
X74676000Y-76708000D03*
X86400000Y-91100000D03*
X110236000Y-97536000D03*
X82296000Y-76708000D03*
X78232000Y-98552000D03*
X111760000Y-78740000D03*
X113284000Y-83312000D03*
X83820000Y-79756000D03*
X68580000Y-91440000D03*
X80772000Y-78232000D03*
X111760000Y-92964000D03*
X73152000Y-85344000D03*
X85344000Y-76708000D03*
X110236000Y-83312000D03*
X71628000Y-95504000D03*
X113284000Y-97536000D03*
X90932000Y-76708000D03*
X80772000Y-79756000D03*
X111700000Y-91550000D03*
X93980000Y-76708000D03*
X74676000Y-91440000D03*
D15*
X87223600Y-86207600D03*
D14*
%TO.N,/VCCP1I*%
X105150000Y-90400000D03*
%TO.N,VBUS*%
X101150000Y-84050000D03*
X89750000Y-86900000D03*
D15*
%TO.N,/HID1*%
X101650000Y-86275000D03*
%TO.N,/HID2*%
X100930000Y-86920000D03*
%TO.N,/HID0*%
X102300000Y-85000000D03*
%TD*%
%TA.AperFunction,Conductor*%
%TO.N,GND*%
G36*
X110002702Y-75200617D02*
G01*
X110412917Y-75218528D01*
X110423654Y-75219468D01*
X110828057Y-75272708D01*
X110838695Y-75274583D01*
X111236925Y-75362869D01*
X111247365Y-75365667D01*
X111636363Y-75488317D01*
X111646524Y-75492015D01*
X112023363Y-75648108D01*
X112033155Y-75652674D01*
X112394965Y-75841020D01*
X112404305Y-75846413D01*
X112689636Y-76028189D01*
X112748309Y-76065568D01*
X112757170Y-76071772D01*
X113080766Y-76320076D01*
X113089053Y-76327030D01*
X113389767Y-76602583D01*
X113397416Y-76610232D01*
X113672969Y-76910946D01*
X113679923Y-76919233D01*
X113928227Y-77242829D01*
X113934431Y-77251690D01*
X114014112Y-77376763D01*
X114130726Y-77559811D01*
X114153578Y-77595680D01*
X114158987Y-77605048D01*
X114347322Y-77966838D01*
X114351894Y-77976642D01*
X114507983Y-78353473D01*
X114511683Y-78363639D01*
X114634331Y-78752630D01*
X114637131Y-78763078D01*
X114725414Y-79161296D01*
X114727292Y-79171950D01*
X114780529Y-79576326D01*
X114781472Y-79587102D01*
X114799382Y-79997297D01*
X114799500Y-80002706D01*
X114799500Y-94997293D01*
X114799382Y-95002702D01*
X114781472Y-95412897D01*
X114780529Y-95423673D01*
X114727292Y-95828049D01*
X114725414Y-95838703D01*
X114637131Y-96236921D01*
X114634331Y-96247369D01*
X114511683Y-96636360D01*
X114507983Y-96646526D01*
X114351894Y-97023357D01*
X114347322Y-97033161D01*
X114158987Y-97394951D01*
X114153578Y-97404319D01*
X113934431Y-97748309D01*
X113928227Y-97757170D01*
X113679923Y-98080766D01*
X113672969Y-98089053D01*
X113397416Y-98389767D01*
X113389767Y-98397416D01*
X113089053Y-98672969D01*
X113080766Y-98679923D01*
X112757170Y-98928227D01*
X112748309Y-98934431D01*
X112404319Y-99153578D01*
X112394951Y-99158987D01*
X112033161Y-99347322D01*
X112023357Y-99351894D01*
X111646526Y-99507983D01*
X111636360Y-99511683D01*
X111247369Y-99634331D01*
X111236921Y-99637131D01*
X110838703Y-99725414D01*
X110828049Y-99727292D01*
X110423673Y-99780529D01*
X110412897Y-99781472D01*
X110002703Y-99799382D01*
X109997294Y-99799500D01*
X70002706Y-99799500D01*
X69997297Y-99799382D01*
X69587102Y-99781472D01*
X69576326Y-99780529D01*
X69171950Y-99727292D01*
X69161296Y-99725414D01*
X68763078Y-99637131D01*
X68752630Y-99634331D01*
X68363639Y-99511683D01*
X68353473Y-99507983D01*
X67976642Y-99351894D01*
X67966838Y-99347322D01*
X67847126Y-99285004D01*
X67605042Y-99158983D01*
X67595686Y-99153582D01*
X67423685Y-99044004D01*
X67251690Y-98934431D01*
X67242829Y-98928227D01*
X66919233Y-98679923D01*
X66910946Y-98672969D01*
X66610232Y-98397416D01*
X66602583Y-98389767D01*
X66327030Y-98089053D01*
X66320076Y-98080766D01*
X66071772Y-97757170D01*
X66065568Y-97748309D01*
X66012070Y-97664334D01*
X65846413Y-97404305D01*
X65841020Y-97394965D01*
X65652674Y-97033155D01*
X65648105Y-97023357D01*
X65557160Y-96803798D01*
X65492015Y-96646524D01*
X65488316Y-96636360D01*
X65481602Y-96615066D01*
X98291299Y-96615066D01*
X98303117Y-96674476D01*
X98303118Y-96674479D01*
X98303119Y-96674480D01*
X98348140Y-96741860D01*
X98410390Y-96783453D01*
X98415520Y-96786881D01*
X98415523Y-96786882D01*
X98474933Y-96798700D01*
X98474936Y-96798700D01*
X100215066Y-96798700D01*
X100274476Y-96786882D01*
X100274477Y-96786881D01*
X100274480Y-96786881D01*
X100341860Y-96741860D01*
X100386881Y-96674480D01*
X100392442Y-96646526D01*
X100398700Y-96615066D01*
X100398700Y-95745000D01*
X103366202Y-95745000D01*
X103386546Y-95951559D01*
X103386547Y-95951561D01*
X103446798Y-96150184D01*
X103446799Y-96150187D01*
X103446800Y-96150188D01*
X103446801Y-96150191D01*
X103544638Y-96333231D01*
X103544642Y-96333238D01*
X103676316Y-96493683D01*
X103836761Y-96625357D01*
X103836768Y-96625361D01*
X104019808Y-96723198D01*
X104019809Y-96723198D01*
X104019816Y-96723202D01*
X104218439Y-96783453D01*
X104218438Y-96783453D01*
X104236958Y-96785277D01*
X104425000Y-96803798D01*
X104631561Y-96783453D01*
X104830184Y-96723202D01*
X105013237Y-96625358D01*
X105173683Y-96493683D01*
X105305358Y-96333237D01*
X105403202Y-96150184D01*
X105463453Y-95951561D01*
X105483798Y-95745000D01*
X105906202Y-95745000D01*
X105926546Y-95951559D01*
X105926547Y-95951561D01*
X105986798Y-96150184D01*
X105986799Y-96150187D01*
X105986800Y-96150188D01*
X105986801Y-96150191D01*
X106084638Y-96333231D01*
X106084642Y-96333238D01*
X106216316Y-96493683D01*
X106376761Y-96625357D01*
X106376768Y-96625361D01*
X106559808Y-96723198D01*
X106559809Y-96723198D01*
X106559816Y-96723202D01*
X106758439Y-96783453D01*
X106758438Y-96783453D01*
X106776958Y-96785277D01*
X106965000Y-96803798D01*
X107171561Y-96783453D01*
X107370184Y-96723202D01*
X107553237Y-96625358D01*
X107713683Y-96493683D01*
X107845358Y-96333237D01*
X107943202Y-96150184D01*
X108003453Y-95951561D01*
X108023798Y-95745000D01*
X108003453Y-95538439D01*
X107943202Y-95339816D01*
X107845358Y-95156763D01*
X107845357Y-95156761D01*
X107713683Y-94996316D01*
X107553238Y-94864642D01*
X107553231Y-94864638D01*
X107370191Y-94766801D01*
X107370188Y-94766800D01*
X107370187Y-94766799D01*
X107370184Y-94766798D01*
X107171561Y-94706547D01*
X107171559Y-94706546D01*
X107171561Y-94706546D01*
X106965000Y-94686202D01*
X106758440Y-94706546D01*
X106641165Y-94742121D01*
X106559816Y-94766798D01*
X106559813Y-94766799D01*
X106559811Y-94766800D01*
X106559808Y-94766801D01*
X106376768Y-94864638D01*
X106376761Y-94864642D01*
X106216316Y-94996316D01*
X106084642Y-95156761D01*
X106084638Y-95156768D01*
X105986801Y-95339808D01*
X105986800Y-95339811D01*
X105986799Y-95339813D01*
X105986798Y-95339816D01*
X105964629Y-95412897D01*
X105926546Y-95538440D01*
X105906202Y-95745000D01*
X105483798Y-95745000D01*
X105463453Y-95538439D01*
X105403202Y-95339816D01*
X105305358Y-95156763D01*
X105305357Y-95156761D01*
X105173683Y-94996316D01*
X105013238Y-94864642D01*
X105013231Y-94864638D01*
X104830191Y-94766801D01*
X104830188Y-94766800D01*
X104830187Y-94766799D01*
X104830184Y-94766798D01*
X104631561Y-94706547D01*
X104631559Y-94706546D01*
X104631561Y-94706546D01*
X104425000Y-94686202D01*
X104218440Y-94706546D01*
X104101165Y-94742121D01*
X104019816Y-94766798D01*
X104019813Y-94766799D01*
X104019811Y-94766800D01*
X104019808Y-94766801D01*
X103836768Y-94864638D01*
X103836761Y-94864642D01*
X103676316Y-94996316D01*
X103544642Y-95156761D01*
X103544638Y-95156768D01*
X103446801Y-95339808D01*
X103446800Y-95339811D01*
X103446799Y-95339813D01*
X103446798Y-95339816D01*
X103424629Y-95412897D01*
X103386546Y-95538440D01*
X103366202Y-95745000D01*
X100398700Y-95745000D01*
X100398700Y-94874933D01*
X100386882Y-94815523D01*
X100386881Y-94815520D01*
X100341860Y-94748140D01*
X100296838Y-94718057D01*
X100274479Y-94703118D01*
X100274476Y-94703117D01*
X100215066Y-94691300D01*
X100215064Y-94691300D01*
X98474936Y-94691300D01*
X98474934Y-94691300D01*
X98415523Y-94703117D01*
X98415520Y-94703118D01*
X98348140Y-94748140D01*
X98303118Y-94815520D01*
X98303117Y-94815523D01*
X98291300Y-94874933D01*
X98291300Y-94874936D01*
X98291300Y-96615064D01*
X98291300Y-96615066D01*
X98291299Y-96615066D01*
X65481602Y-96615066D01*
X65481601Y-96615064D01*
X65365667Y-96247365D01*
X65362868Y-96236921D01*
X65274583Y-95838695D01*
X65272707Y-95828049D01*
X65219468Y-95423654D01*
X65218528Y-95412917D01*
X65200618Y-95002702D01*
X65200500Y-94997293D01*
X65200500Y-93564998D01*
X74581309Y-93564998D01*
X74581309Y-93565001D01*
X74601246Y-93843752D01*
X74601247Y-93843759D01*
X74660648Y-94116820D01*
X74660650Y-94116827D01*
X74721286Y-94279401D01*
X74758312Y-94378671D01*
X74758314Y-94378675D01*
X74892240Y-94623942D01*
X74892245Y-94623950D01*
X75059713Y-94847662D01*
X75059729Y-94847680D01*
X75257319Y-95045270D01*
X75257337Y-95045286D01*
X75481049Y-95212754D01*
X75481057Y-95212759D01*
X75726324Y-95346685D01*
X75726328Y-95346687D01*
X75726330Y-95346688D01*
X75988173Y-95444350D01*
X76261249Y-95503754D01*
X76518526Y-95522155D01*
X76539999Y-95523691D01*
X76540000Y-95523691D01*
X76540001Y-95523691D01*
X76559938Y-95522264D01*
X76818751Y-95503754D01*
X77091827Y-95444350D01*
X77353670Y-95346688D01*
X77598948Y-95212756D01*
X77822670Y-95045280D01*
X78020280Y-94847670D01*
X78187756Y-94623948D01*
X78321688Y-94378670D01*
X78419350Y-94116827D01*
X78478754Y-93843751D01*
X78498691Y-93565000D01*
X78478754Y-93286249D01*
X78419350Y-93013173D01*
X78321688Y-92751330D01*
X78241075Y-92603699D01*
X78187759Y-92506057D01*
X78187754Y-92506049D01*
X78020286Y-92282337D01*
X78020270Y-92282319D01*
X77837951Y-92100000D01*
X99056120Y-92100000D01*
X99076732Y-92243363D01*
X99076734Y-92243371D01*
X99136900Y-92375117D01*
X99136905Y-92375125D01*
X99231751Y-92484584D01*
X99231753Y-92484585D01*
X99231754Y-92484586D01*
X99353604Y-92562894D01*
X99353605Y-92562894D01*
X99353608Y-92562896D01*
X99492576Y-92603699D01*
X99492578Y-92603700D01*
X99492579Y-92603700D01*
X99637422Y-92603700D01*
X99637422Y-92603699D01*
X99698143Y-92585870D01*
X99776391Y-92562896D01*
X99776392Y-92562895D01*
X99776396Y-92562894D01*
X99898246Y-92484586D01*
X99993097Y-92375121D01*
X100053267Y-92243368D01*
X100073880Y-92100000D01*
X100053267Y-91956632D01*
X100040287Y-91928210D01*
X99993099Y-91824882D01*
X99993094Y-91824874D01*
X99898248Y-91715415D01*
X99776391Y-91637103D01*
X99637423Y-91596300D01*
X99637421Y-91596300D01*
X99492579Y-91596300D01*
X99492576Y-91596300D01*
X99353608Y-91637103D01*
X99231751Y-91715415D01*
X99136905Y-91824874D01*
X99136900Y-91824882D01*
X99076734Y-91956628D01*
X99076732Y-91956636D01*
X99056120Y-92100000D01*
X77837951Y-92100000D01*
X77822680Y-92084729D01*
X77822662Y-92084713D01*
X77598950Y-91917245D01*
X77598942Y-91917240D01*
X77353675Y-91783314D01*
X77353671Y-91783312D01*
X77171630Y-91715415D01*
X77091827Y-91685650D01*
X77091823Y-91685649D01*
X77091820Y-91685648D01*
X76818759Y-91626247D01*
X76818752Y-91626246D01*
X76540001Y-91606309D01*
X76539999Y-91606309D01*
X76261247Y-91626246D01*
X76261240Y-91626247D01*
X75988179Y-91685648D01*
X75988174Y-91685649D01*
X75988173Y-91685650D01*
X75924867Y-91709261D01*
X75726328Y-91783312D01*
X75726324Y-91783314D01*
X75481057Y-91917240D01*
X75481049Y-91917245D01*
X75257337Y-92084713D01*
X75257319Y-92084729D01*
X75059729Y-92282319D01*
X75059713Y-92282337D01*
X74892245Y-92506049D01*
X74892240Y-92506057D01*
X74758314Y-92751324D01*
X74758312Y-92751328D01*
X74660648Y-93013179D01*
X74601247Y-93286240D01*
X74601246Y-93286247D01*
X74581309Y-93564998D01*
X65200500Y-93564998D01*
X65200500Y-90400000D01*
X104641120Y-90400000D01*
X104661732Y-90543363D01*
X104661734Y-90543371D01*
X104721900Y-90675117D01*
X104721905Y-90675125D01*
X104816751Y-90784584D01*
X104816753Y-90784585D01*
X104816754Y-90784586D01*
X104938604Y-90862894D01*
X104938605Y-90862894D01*
X104938608Y-90862896D01*
X105077576Y-90903699D01*
X105077578Y-90903700D01*
X105077579Y-90903700D01*
X105222422Y-90903700D01*
X105222422Y-90903699D01*
X105283143Y-90885870D01*
X105361391Y-90862896D01*
X105361392Y-90862895D01*
X105361396Y-90862894D01*
X105483246Y-90784586D01*
X105578097Y-90675121D01*
X105638267Y-90543368D01*
X105658880Y-90400000D01*
X105638267Y-90256632D01*
X105625287Y-90228210D01*
X105578099Y-90124882D01*
X105578094Y-90124874D01*
X105483248Y-90015415D01*
X105361391Y-89937103D01*
X105222423Y-89896300D01*
X105222421Y-89896300D01*
X105077579Y-89896300D01*
X105077576Y-89896300D01*
X104938608Y-89937103D01*
X104816751Y-90015415D01*
X104721905Y-90124874D01*
X104721900Y-90124882D01*
X104661734Y-90256628D01*
X104661732Y-90256636D01*
X104641120Y-90400000D01*
X65200500Y-90400000D01*
X65200500Y-89665066D01*
X80196299Y-89665066D01*
X80208117Y-89724476D01*
X80208118Y-89724479D01*
X80208119Y-89724480D01*
X80253140Y-89791860D01*
X80320520Y-89836881D01*
X80320523Y-89836882D01*
X80379933Y-89848700D01*
X80379936Y-89848700D01*
X82120066Y-89848700D01*
X82179476Y-89836882D01*
X82179477Y-89836881D01*
X82179480Y-89836881D01*
X82246860Y-89791860D01*
X82291881Y-89724480D01*
X82303700Y-89665064D01*
X82303700Y-87924936D01*
X82303700Y-87924933D01*
X82291882Y-87865523D01*
X82291881Y-87865520D01*
X82246860Y-87798140D01*
X82179480Y-87753119D01*
X82179479Y-87753118D01*
X82179476Y-87753117D01*
X82120066Y-87741300D01*
X82120064Y-87741300D01*
X80379936Y-87741300D01*
X80379934Y-87741300D01*
X80320523Y-87753117D01*
X80320520Y-87753118D01*
X80253140Y-87798140D01*
X80208118Y-87865520D01*
X80208117Y-87865523D01*
X80196300Y-87924933D01*
X80196300Y-87924936D01*
X80196300Y-89665064D01*
X80196300Y-89665066D01*
X80196299Y-89665066D01*
X65200500Y-89665066D01*
X65200500Y-86295000D01*
X78191202Y-86295000D01*
X78211546Y-86501559D01*
X78217993Y-86522811D01*
X78271798Y-86700184D01*
X78271799Y-86700187D01*
X78271800Y-86700188D01*
X78271801Y-86700191D01*
X78369638Y-86883231D01*
X78369642Y-86883238D01*
X78501316Y-87043683D01*
X78661761Y-87175357D01*
X78661768Y-87175361D01*
X78844808Y-87273198D01*
X78844809Y-87273198D01*
X78844816Y-87273202D01*
X79043439Y-87333453D01*
X79043438Y-87333453D01*
X79061958Y-87335277D01*
X79250000Y-87353798D01*
X79456561Y-87333453D01*
X79655184Y-87273202D01*
X79838237Y-87175358D01*
X79998683Y-87043683D01*
X80130358Y-86883237D01*
X80140641Y-86863999D01*
X80189603Y-86814154D01*
X80257740Y-86798693D01*
X80323420Y-86822524D01*
X80359359Y-86863999D01*
X80369640Y-86883235D01*
X80369642Y-86883238D01*
X80501316Y-87043683D01*
X80661761Y-87175357D01*
X80661768Y-87175361D01*
X80844808Y-87273198D01*
X80844809Y-87273198D01*
X80844816Y-87273202D01*
X81043439Y-87333453D01*
X81043438Y-87333453D01*
X81061958Y-87335277D01*
X81250000Y-87353798D01*
X81456561Y-87333453D01*
X81655184Y-87273202D01*
X81838237Y-87175358D01*
X81998683Y-87043683D01*
X82116601Y-86900000D01*
X89241120Y-86900000D01*
X89261732Y-87043363D01*
X89261734Y-87043371D01*
X89321900Y-87175117D01*
X89321905Y-87175125D01*
X89416751Y-87284584D01*
X89416753Y-87284585D01*
X89416754Y-87284586D01*
X89538604Y-87362894D01*
X89538605Y-87362894D01*
X89538608Y-87362896D01*
X89677576Y-87403699D01*
X89677578Y-87403700D01*
X89677579Y-87403700D01*
X89822422Y-87403700D01*
X89822422Y-87403699D01*
X89883143Y-87385870D01*
X89961391Y-87362896D01*
X89961392Y-87362895D01*
X89961396Y-87362894D01*
X90083246Y-87284586D01*
X90098994Y-87266412D01*
X90178094Y-87175125D01*
X90178095Y-87175123D01*
X90178097Y-87175121D01*
X90181436Y-87167811D01*
X90235631Y-87049139D01*
X90238267Y-87043368D01*
X90256004Y-86920000D01*
X100471635Y-86920000D01*
X100490201Y-87049135D01*
X100490202Y-87049139D01*
X100544398Y-87167809D01*
X100544399Y-87167811D01*
X100629835Y-87266409D01*
X100629836Y-87266410D01*
X100629839Y-87266412D01*
X100739581Y-87336939D01*
X100739583Y-87336939D01*
X100739588Y-87336943D01*
X100864768Y-87373700D01*
X100995232Y-87373700D01*
X101120412Y-87336943D01*
X101230165Y-87266409D01*
X101315601Y-87167811D01*
X101369798Y-87049136D01*
X101388365Y-86920000D01*
X101378450Y-86851039D01*
X101388394Y-86781881D01*
X101434149Y-86729078D01*
X101501188Y-86709393D01*
X101536119Y-86714415D01*
X101584768Y-86728700D01*
X101584769Y-86728700D01*
X101715232Y-86728700D01*
X101840412Y-86691943D01*
X101950165Y-86621409D01*
X102035601Y-86522811D01*
X102074741Y-86437106D01*
X102089797Y-86404139D01*
X102089798Y-86404135D01*
X102108365Y-86275000D01*
X102089798Y-86145864D01*
X102089797Y-86145860D01*
X102035601Y-86027190D01*
X102035601Y-86027189D01*
X101950165Y-85928591D01*
X101950164Y-85928590D01*
X101950163Y-85928589D01*
X101950160Y-85928587D01*
X101840418Y-85858060D01*
X101840414Y-85858058D01*
X101840412Y-85858057D01*
X101715232Y-85821300D01*
X101584768Y-85821300D01*
X101459588Y-85858057D01*
X101459581Y-85858060D01*
X101349839Y-85928587D01*
X101349836Y-85928589D01*
X101264399Y-86027189D01*
X101264398Y-86027190D01*
X101210202Y-86145860D01*
X101210201Y-86145864D01*
X101191635Y-86275000D01*
X101191635Y-86275001D01*
X101201549Y-86343960D01*
X101191605Y-86413119D01*
X101145849Y-86465922D01*
X101078810Y-86485606D01*
X101043875Y-86480583D01*
X100995233Y-86466300D01*
X100995232Y-86466300D01*
X100864768Y-86466300D01*
X100739588Y-86503057D01*
X100739581Y-86503060D01*
X100629839Y-86573587D01*
X100629836Y-86573589D01*
X100544399Y-86672189D01*
X100544398Y-86672190D01*
X100490202Y-86790860D01*
X100490201Y-86790864D01*
X100471635Y-86920000D01*
X90256004Y-86920000D01*
X90258880Y-86900000D01*
X90238267Y-86756632D01*
X90225287Y-86728210D01*
X90178099Y-86624882D01*
X90178094Y-86624874D01*
X90083248Y-86515415D01*
X89961391Y-86437103D01*
X89822423Y-86396300D01*
X89822421Y-86396300D01*
X89677579Y-86396300D01*
X89677576Y-86396300D01*
X89538608Y-86437103D01*
X89416751Y-86515415D01*
X89321905Y-86624874D01*
X89321900Y-86624882D01*
X89261734Y-86756628D01*
X89261732Y-86756636D01*
X89241120Y-86900000D01*
X82116601Y-86900000D01*
X82130358Y-86883237D01*
X82228202Y-86700184D01*
X82288453Y-86501561D01*
X82308798Y-86295000D01*
X82288453Y-86088439D01*
X82228202Y-85889816D01*
X82211228Y-85858060D01*
X82130361Y-85706768D01*
X82130357Y-85706761D01*
X81998683Y-85546316D01*
X81838238Y-85414642D01*
X81838231Y-85414638D01*
X81655191Y-85316801D01*
X81655188Y-85316800D01*
X81655187Y-85316799D01*
X81655184Y-85316798D01*
X81456561Y-85256547D01*
X81456559Y-85256546D01*
X81456561Y-85256546D01*
X81250000Y-85236202D01*
X81043440Y-85256546D01*
X80926165Y-85292121D01*
X80844816Y-85316798D01*
X80844813Y-85316799D01*
X80844811Y-85316800D01*
X80844808Y-85316801D01*
X80661768Y-85414638D01*
X80661761Y-85414642D01*
X80501316Y-85546316D01*
X80369642Y-85706761D01*
X80369640Y-85706764D01*
X80359358Y-85726002D01*
X80310395Y-85775846D01*
X80242258Y-85791306D01*
X80176578Y-85767474D01*
X80140642Y-85726002D01*
X80130359Y-85706764D01*
X80130357Y-85706761D01*
X79998683Y-85546316D01*
X79838238Y-85414642D01*
X79838231Y-85414638D01*
X79655191Y-85316801D01*
X79655188Y-85316800D01*
X79655187Y-85316799D01*
X79655184Y-85316798D01*
X79456561Y-85256547D01*
X79456559Y-85256546D01*
X79456561Y-85256546D01*
X79250000Y-85236202D01*
X79043440Y-85256546D01*
X78926165Y-85292121D01*
X78844816Y-85316798D01*
X78844813Y-85316799D01*
X78844811Y-85316800D01*
X78844808Y-85316801D01*
X78661768Y-85414638D01*
X78661761Y-85414642D01*
X78501316Y-85546316D01*
X78369642Y-85706761D01*
X78369638Y-85706768D01*
X78271801Y-85889808D01*
X78271800Y-85889811D01*
X78271799Y-85889813D01*
X78271798Y-85889816D01*
X78260036Y-85928591D01*
X78211546Y-86088440D01*
X78191202Y-86295000D01*
X65200500Y-86295000D01*
X65200500Y-85000000D01*
X101841635Y-85000000D01*
X101860201Y-85129135D01*
X101860202Y-85129139D01*
X101909097Y-85236202D01*
X101914399Y-85247811D01*
X101999835Y-85346409D01*
X101999836Y-85346410D01*
X101999839Y-85346412D01*
X102109581Y-85416939D01*
X102109583Y-85416939D01*
X102109588Y-85416943D01*
X102234768Y-85453700D01*
X102365232Y-85453700D01*
X102490412Y-85416943D01*
X102600165Y-85346409D01*
X102685601Y-85247811D01*
X102739798Y-85129136D01*
X102758365Y-85000000D01*
X102739798Y-84870864D01*
X102739797Y-84870860D01*
X102685601Y-84752190D01*
X102685601Y-84752189D01*
X102600165Y-84653591D01*
X102600164Y-84653590D01*
X102600163Y-84653589D01*
X102600160Y-84653587D01*
X102490418Y-84583060D01*
X102490414Y-84583058D01*
X102490412Y-84583057D01*
X102365232Y-84546300D01*
X102234768Y-84546300D01*
X102109588Y-84583057D01*
X102109581Y-84583060D01*
X101999839Y-84653587D01*
X101999836Y-84653589D01*
X101914399Y-84752189D01*
X101914398Y-84752190D01*
X101860202Y-84870860D01*
X101860201Y-84870864D01*
X101841635Y-85000000D01*
X65200500Y-85000000D01*
X65200500Y-84050000D01*
X100641120Y-84050000D01*
X100661732Y-84193363D01*
X100661734Y-84193371D01*
X100721900Y-84325117D01*
X100721905Y-84325125D01*
X100816751Y-84434584D01*
X100816753Y-84434585D01*
X100816754Y-84434586D01*
X100938604Y-84512894D01*
X100938605Y-84512894D01*
X100938608Y-84512896D01*
X101077576Y-84553699D01*
X101077578Y-84553700D01*
X101077579Y-84553700D01*
X101222422Y-84553700D01*
X101222422Y-84553699D01*
X101283143Y-84535870D01*
X101361391Y-84512896D01*
X101361392Y-84512895D01*
X101361396Y-84512894D01*
X101483246Y-84434586D01*
X101578097Y-84325121D01*
X101638267Y-84193368D01*
X101658880Y-84050000D01*
X101638267Y-83906632D01*
X101625287Y-83878210D01*
X101578099Y-83774882D01*
X101578094Y-83774874D01*
X101483248Y-83665415D01*
X101361391Y-83587103D01*
X101222423Y-83546300D01*
X101222421Y-83546300D01*
X101077579Y-83546300D01*
X101077576Y-83546300D01*
X100938608Y-83587103D01*
X100816751Y-83665415D01*
X100721905Y-83774874D01*
X100721900Y-83774882D01*
X100661734Y-83906628D01*
X100661732Y-83906636D01*
X100641120Y-84050000D01*
X65200500Y-84050000D01*
X65200500Y-81524998D01*
X74581309Y-81524998D01*
X74581309Y-81525001D01*
X74601246Y-81803752D01*
X74601247Y-81803759D01*
X74660648Y-82076820D01*
X74660650Y-82076827D01*
X74721286Y-82239401D01*
X74758312Y-82338671D01*
X74758314Y-82338675D01*
X74892240Y-82583942D01*
X74892245Y-82583950D01*
X75059713Y-82807662D01*
X75059729Y-82807680D01*
X75257319Y-83005270D01*
X75257337Y-83005286D01*
X75481049Y-83172754D01*
X75481057Y-83172759D01*
X75726324Y-83306685D01*
X75726328Y-83306687D01*
X75726330Y-83306688D01*
X75988173Y-83404350D01*
X76261249Y-83463754D01*
X76518526Y-83482155D01*
X76539999Y-83483691D01*
X76540000Y-83483691D01*
X76540001Y-83483691D01*
X76559938Y-83482264D01*
X76818751Y-83463754D01*
X77091827Y-83404350D01*
X77353670Y-83306688D01*
X77598948Y-83172756D01*
X77822670Y-83005280D01*
X78020280Y-82807670D01*
X78187756Y-82583948D01*
X78321688Y-82338670D01*
X78419350Y-82076827D01*
X78478754Y-81803751D01*
X78498691Y-81525000D01*
X78478754Y-81246249D01*
X78419350Y-80973173D01*
X78321688Y-80711330D01*
X78187756Y-80466052D01*
X78187754Y-80466049D01*
X78020286Y-80242337D01*
X78020270Y-80242319D01*
X77822680Y-80044729D01*
X77822662Y-80044713D01*
X77598950Y-79877245D01*
X77598942Y-79877240D01*
X77353675Y-79743314D01*
X77353671Y-79743312D01*
X77254401Y-79706286D01*
X77091827Y-79645650D01*
X77091823Y-79645649D01*
X77091820Y-79645648D01*
X76818759Y-79586247D01*
X76818752Y-79586246D01*
X76540001Y-79566309D01*
X76539999Y-79566309D01*
X76261247Y-79586246D01*
X76261240Y-79586247D01*
X75988179Y-79645648D01*
X75988174Y-79645649D01*
X75988173Y-79645650D01*
X75924867Y-79669261D01*
X75726328Y-79743312D01*
X75726324Y-79743314D01*
X75481057Y-79877240D01*
X75481049Y-79877245D01*
X75257337Y-80044713D01*
X75257319Y-80044729D01*
X75059729Y-80242319D01*
X75059713Y-80242337D01*
X74892245Y-80466049D01*
X74892240Y-80466057D01*
X74758314Y-80711324D01*
X74758312Y-80711328D01*
X74660648Y-80973179D01*
X74601247Y-81246240D01*
X74601246Y-81246247D01*
X74581309Y-81524998D01*
X65200500Y-81524998D01*
X65200500Y-80002706D01*
X65200618Y-79997297D01*
X65202241Y-79960118D01*
X65218528Y-79587080D01*
X65219468Y-79576347D01*
X65272709Y-79171938D01*
X65274582Y-79161308D01*
X65346908Y-78835066D01*
X98291299Y-78835066D01*
X98303117Y-78894476D01*
X98303118Y-78894479D01*
X98303119Y-78894480D01*
X98348140Y-78961860D01*
X98410390Y-79003453D01*
X98415520Y-79006881D01*
X98415523Y-79006882D01*
X98474933Y-79018700D01*
X98474936Y-79018700D01*
X100215066Y-79018700D01*
X100274476Y-79006882D01*
X100274477Y-79006881D01*
X100274480Y-79006881D01*
X100341860Y-78961860D01*
X100386881Y-78894480D01*
X100396652Y-78845361D01*
X100398700Y-78835066D01*
X100398700Y-77965000D01*
X100826202Y-77965000D01*
X100846546Y-78171559D01*
X100846547Y-78171561D01*
X100906798Y-78370184D01*
X100906799Y-78370187D01*
X100906800Y-78370188D01*
X100906801Y-78370191D01*
X101004638Y-78553231D01*
X101004642Y-78553238D01*
X101136316Y-78713683D01*
X101296761Y-78845357D01*
X101296768Y-78845361D01*
X101479808Y-78943198D01*
X101479809Y-78943198D01*
X101479816Y-78943202D01*
X101678439Y-79003453D01*
X101678438Y-79003453D01*
X101696958Y-79005277D01*
X101885000Y-79023798D01*
X102091561Y-79003453D01*
X102290184Y-78943202D01*
X102473237Y-78845358D01*
X102633683Y-78713683D01*
X102765358Y-78553237D01*
X102863202Y-78370184D01*
X102923453Y-78171561D01*
X102943798Y-77965000D01*
X103366202Y-77965000D01*
X103386546Y-78171559D01*
X103386547Y-78171561D01*
X103446798Y-78370184D01*
X103446799Y-78370187D01*
X103446800Y-78370188D01*
X103446801Y-78370191D01*
X103544638Y-78553231D01*
X103544642Y-78553238D01*
X103676316Y-78713683D01*
X103836761Y-78845357D01*
X103836768Y-78845361D01*
X104019808Y-78943198D01*
X104019809Y-78943198D01*
X104019816Y-78943202D01*
X104218439Y-79003453D01*
X104218438Y-79003453D01*
X104236958Y-79005277D01*
X104425000Y-79023798D01*
X104631561Y-79003453D01*
X104830184Y-78943202D01*
X105013237Y-78845358D01*
X105173683Y-78713683D01*
X105305358Y-78553237D01*
X105403202Y-78370184D01*
X105463453Y-78171561D01*
X105483798Y-77965000D01*
X105906202Y-77965000D01*
X105926546Y-78171559D01*
X105926547Y-78171561D01*
X105986798Y-78370184D01*
X105986799Y-78370187D01*
X105986800Y-78370188D01*
X105986801Y-78370191D01*
X106084638Y-78553231D01*
X106084642Y-78553238D01*
X106216316Y-78713683D01*
X106376761Y-78845357D01*
X106376768Y-78845361D01*
X106559808Y-78943198D01*
X106559809Y-78943198D01*
X106559816Y-78943202D01*
X106758439Y-79003453D01*
X106758438Y-79003453D01*
X106776958Y-79005277D01*
X106965000Y-79023798D01*
X107171561Y-79003453D01*
X107370184Y-78943202D01*
X107553237Y-78845358D01*
X107713683Y-78713683D01*
X107845358Y-78553237D01*
X107943202Y-78370184D01*
X108003453Y-78171561D01*
X108023798Y-77965000D01*
X108003453Y-77758439D01*
X107943202Y-77559816D01*
X107845358Y-77376763D01*
X107845357Y-77376761D01*
X107713683Y-77216316D01*
X107553238Y-77084642D01*
X107553231Y-77084638D01*
X107370191Y-76986801D01*
X107370188Y-76986800D01*
X107370187Y-76986799D01*
X107370184Y-76986798D01*
X107171561Y-76926547D01*
X107171559Y-76926546D01*
X107171561Y-76926546D01*
X106965000Y-76906202D01*
X106758440Y-76926546D01*
X106641165Y-76962121D01*
X106559816Y-76986798D01*
X106559813Y-76986799D01*
X106559811Y-76986800D01*
X106559808Y-76986801D01*
X106376768Y-77084638D01*
X106376761Y-77084642D01*
X106216316Y-77216316D01*
X106084642Y-77376761D01*
X106084638Y-77376768D01*
X105986801Y-77559808D01*
X105986800Y-77559811D01*
X105926546Y-77758440D01*
X105906202Y-77965000D01*
X105483798Y-77965000D01*
X105463453Y-77758439D01*
X105403202Y-77559816D01*
X105305358Y-77376763D01*
X105305357Y-77376761D01*
X105173683Y-77216316D01*
X105013238Y-77084642D01*
X105013231Y-77084638D01*
X104830191Y-76986801D01*
X104830188Y-76986800D01*
X104830187Y-76986799D01*
X104830184Y-76986798D01*
X104631561Y-76926547D01*
X104631559Y-76926546D01*
X104631561Y-76926546D01*
X104425000Y-76906202D01*
X104218440Y-76926546D01*
X104101165Y-76962121D01*
X104019816Y-76986798D01*
X104019813Y-76986799D01*
X104019811Y-76986800D01*
X104019808Y-76986801D01*
X103836768Y-77084638D01*
X103836761Y-77084642D01*
X103676316Y-77216316D01*
X103544642Y-77376761D01*
X103544638Y-77376768D01*
X103446801Y-77559808D01*
X103446800Y-77559811D01*
X103386546Y-77758440D01*
X103366202Y-77965000D01*
X102943798Y-77965000D01*
X102923453Y-77758439D01*
X102863202Y-77559816D01*
X102765358Y-77376763D01*
X102765357Y-77376761D01*
X102633683Y-77216316D01*
X102473238Y-77084642D01*
X102473231Y-77084638D01*
X102290191Y-76986801D01*
X102290188Y-76986800D01*
X102290187Y-76986799D01*
X102290184Y-76986798D01*
X102091561Y-76926547D01*
X102091559Y-76926546D01*
X102091561Y-76926546D01*
X101885000Y-76906202D01*
X101678440Y-76926546D01*
X101561165Y-76962121D01*
X101479816Y-76986798D01*
X101479813Y-76986799D01*
X101479811Y-76986800D01*
X101479808Y-76986801D01*
X101296768Y-77084638D01*
X101296761Y-77084642D01*
X101136316Y-77216316D01*
X101004642Y-77376761D01*
X101004638Y-77376768D01*
X100906801Y-77559808D01*
X100906800Y-77559811D01*
X100846546Y-77758440D01*
X100826202Y-77965000D01*
X100398700Y-77965000D01*
X100398700Y-77094933D01*
X100386882Y-77035523D01*
X100386881Y-77035520D01*
X100341860Y-76968140D01*
X100296838Y-76938057D01*
X100274479Y-76923118D01*
X100274476Y-76923117D01*
X100215066Y-76911300D01*
X100215064Y-76911300D01*
X98474936Y-76911300D01*
X98474934Y-76911300D01*
X98415523Y-76923117D01*
X98415520Y-76923118D01*
X98348140Y-76968140D01*
X98303118Y-77035520D01*
X98303117Y-77035523D01*
X98291300Y-77094933D01*
X98291300Y-77094936D01*
X98291300Y-78835064D01*
X98291300Y-78835066D01*
X98291299Y-78835066D01*
X65346908Y-78835066D01*
X65362870Y-78763068D01*
X65365668Y-78752630D01*
X65428536Y-78553238D01*
X65488319Y-78363629D01*
X65492016Y-78353473D01*
X65567367Y-78171561D01*
X65648111Y-77976627D01*
X65652669Y-77966853D01*
X65841025Y-77605024D01*
X65846407Y-77595703D01*
X66065574Y-77251680D01*
X66071765Y-77242837D01*
X66320083Y-76919224D01*
X66327021Y-76910955D01*
X66602594Y-76610220D01*
X66610220Y-76602594D01*
X66910955Y-76327021D01*
X66919224Y-76320083D01*
X67242837Y-76071765D01*
X67251680Y-76065574D01*
X67595703Y-75846407D01*
X67605024Y-75841025D01*
X67966853Y-75652669D01*
X67976627Y-75648111D01*
X68353482Y-75492012D01*
X68363629Y-75488319D01*
X68752639Y-75365665D01*
X68763068Y-75362870D01*
X69161308Y-75274582D01*
X69171938Y-75272709D01*
X69576347Y-75219468D01*
X69587080Y-75218528D01*
X69997297Y-75200617D01*
X70002706Y-75200500D01*
X70039882Y-75200500D01*
X109960118Y-75200500D01*
X109997294Y-75200500D01*
X110002702Y-75200617D01*
G37*
%TD.AperFunction*%
%TD*%
M02*
