%TF.GenerationSoftware,KiCad,Pcbnew,8.0.5*%
%TF.CreationDate,2024-10-10T11:51:51-04:00*%
%TF.ProjectId,dac,6461632e-6b69-4636-9164-5f7063625858,rev?*%
%TF.SameCoordinates,Original*%
%TF.FileFunction,Copper,L4,Bot*%
%TF.FilePolarity,Positive*%
%FSLAX46Y46*%
G04 Gerber Fmt 4.6, Leading zero omitted, Abs format (unit mm)*
G04 Created by KiCad (PCBNEW 8.0.5) date 2024-10-10 11:51:51*
%MOMM*%
%LPD*%
G01*
G04 APERTURE LIST*
G04 Aperture macros list*
%AMRoundRect*
0 Rectangle with rounded corners*
0 $1 Rounding radius*
0 $2 $3 $4 $5 $6 $7 $8 $9 X,Y pos of 4 corners*
0 Add a 4 corners polygon primitive as box body*
4,1,4,$2,$3,$4,$5,$6,$7,$8,$9,$2,$3,0*
0 Add four circle primitives for the rounded corners*
1,1,$1+$1,$2,$3*
1,1,$1+$1,$4,$5*
1,1,$1+$1,$6,$7*
1,1,$1+$1,$8,$9*
0 Add four rect primitives between the rounded corners*
20,1,$1+$1,$2,$3,$4,$5,0*
20,1,$1+$1,$4,$5,$6,$7,0*
20,1,$1+$1,$6,$7,$8,$9,0*
20,1,$1+$1,$8,$9,$2,$3,0*%
G04 Aperture macros list end*
%TA.AperFunction,ComponentPad*%
%ADD10R,1.700000X1.700000*%
%TD*%
%TA.AperFunction,ComponentPad*%
%ADD11O,1.700000X1.700000*%
%TD*%
%TA.AperFunction,ComponentPad*%
%ADD12C,1.700000*%
%TD*%
%TA.AperFunction,ComponentPad*%
%ADD13C,3.500000*%
%TD*%
%TA.AperFunction,SMDPad,CuDef*%
%ADD14RoundRect,0.155000X0.155000X-0.212500X0.155000X0.212500X-0.155000X0.212500X-0.155000X-0.212500X0*%
%TD*%
%TA.AperFunction,SMDPad,CuDef*%
%ADD15RoundRect,0.250000X0.475000X-0.337500X0.475000X0.337500X-0.475000X0.337500X-0.475000X-0.337500X0*%
%TD*%
%TA.AperFunction,SMDPad,CuDef*%
%ADD16RoundRect,0.155000X-0.155000X0.212500X-0.155000X-0.212500X0.155000X-0.212500X0.155000X0.212500X0*%
%TD*%
%TA.AperFunction,ViaPad*%
%ADD17C,0.600000*%
%TD*%
%TA.AperFunction,ViaPad*%
%ADD18C,0.500000*%
%TD*%
%TA.AperFunction,Conductor*%
%ADD19C,0.508000*%
%TD*%
%TA.AperFunction,Conductor*%
%ADD20C,0.254000*%
%TD*%
G04 APERTURE END LIST*
D10*
%TO.P,J2,1,Pin_1*%
%TO.N,VBUS*%
X99345000Y-95745000D03*
D11*
%TO.P,J2,2,Pin_2*%
%TO.N,GND*%
X101885000Y-95745000D03*
%TO.P,J2,3,Pin_3*%
%TO.N,/VOUTL*%
X104425000Y-95745000D03*
%TO.P,J2,4,Pin_4*%
%TO.N,/VOUTR*%
X106965000Y-95745000D03*
%TD*%
D10*
%TO.P,J1,1,VBUS*%
%TO.N,VUSB_CONN*%
X81250000Y-88795000D03*
D12*
%TO.P,J1,2,D-*%
%TO.N,/CONN_D-*%
X81250000Y-86295000D03*
%TO.P,J1,3,D+*%
%TO.N,/CONN_D+*%
X79250000Y-86295000D03*
%TO.P,J1,4,GND*%
%TO.N,GND*%
X79250000Y-88795000D03*
D13*
%TO.P,J1,5,Shield*%
%TO.N,CGND*%
X76540000Y-93565000D03*
X76540000Y-81525000D03*
%TD*%
D10*
%TO.P,J3,1,Pin_1*%
%TO.N,/HID0*%
X99345000Y-77965000D03*
D11*
%TO.P,J3,2,Pin_2*%
%TO.N,/HID1*%
X101885000Y-77965000D03*
%TO.P,J3,3,Pin_3*%
%TO.N,/HID2*%
X104425000Y-77965000D03*
%TO.P,J3,4,Pin_4*%
%TO.N,/~{SSPND}*%
X106965000Y-77965000D03*
%TD*%
D14*
%TO.P,C2,1*%
%TO.N,/VCCP1I*%
X106705000Y-90472500D03*
%TO.P,C2,2*%
%TO.N,GND*%
X106705000Y-89337500D03*
%TD*%
D15*
%TO.P,C1,1*%
%TO.N,/VCOM*%
X99536000Y-90617500D03*
%TO.P,C1,2*%
%TO.N,GND*%
X99536000Y-88542500D03*
%TD*%
D16*
%TO.P,C7,1*%
%TO.N,VBUS*%
X99535000Y-84047500D03*
%TO.P,C7,2*%
%TO.N,GND*%
X99535000Y-85182500D03*
%TD*%
D17*
%TO.N,/VCOM*%
X99565000Y-92100000D03*
%TO.N,GND*%
X74676000Y-88392000D03*
X90932000Y-78232000D03*
X87500000Y-88550000D03*
X71628000Y-76708000D03*
X70104000Y-78232000D03*
X71628000Y-78232000D03*
X86868000Y-76708000D03*
X111760000Y-80264000D03*
X86868000Y-78232000D03*
X80772000Y-82804000D03*
D18*
X85050000Y-88850000D03*
D17*
X74676000Y-85344000D03*
X82804000Y-97028000D03*
X92456000Y-78232000D03*
X82296000Y-82804000D03*
X71628000Y-89916000D03*
X81280000Y-95504000D03*
X113284000Y-94488000D03*
X70104000Y-83820000D03*
X110236000Y-96012000D03*
D18*
X109300000Y-84375000D03*
D17*
X90932000Y-79756000D03*
X110236000Y-81788000D03*
X68580000Y-88392000D03*
X73152000Y-95504000D03*
X113284000Y-78740000D03*
X74676000Y-98552000D03*
X111760000Y-96012000D03*
X101150000Y-85000000D03*
X110236000Y-80264000D03*
X79756000Y-98552000D03*
X70104000Y-88392000D03*
X74676000Y-86868000D03*
X68580000Y-86868000D03*
X71628000Y-79756000D03*
X89408000Y-76708000D03*
X95800000Y-93350000D03*
D18*
X88239600Y-86360000D03*
D17*
X68580000Y-76708000D03*
X79000000Y-78000000D03*
X79756000Y-95504000D03*
X68580000Y-89916000D03*
X70104000Y-86868000D03*
X111760000Y-97536000D03*
X82804000Y-95504000D03*
X68580000Y-98552000D03*
X112850000Y-84950000D03*
X110236000Y-94488000D03*
X111760000Y-83312000D03*
X85344000Y-78232000D03*
X74676000Y-79756000D03*
X70104000Y-95504000D03*
X73152000Y-97028000D03*
X73152000Y-89916000D03*
X73152000Y-98552000D03*
X100975000Y-88550000D03*
X74676000Y-83820000D03*
X109400000Y-90500000D03*
X113284000Y-80264000D03*
X80772000Y-76708000D03*
X110236000Y-78740000D03*
X73152000Y-79756000D03*
X81280000Y-97028000D03*
X92456000Y-76708000D03*
X68580000Y-78232000D03*
X73152000Y-88392000D03*
X78232000Y-97028000D03*
X70104000Y-97028000D03*
X82804000Y-98552000D03*
X113284000Y-81788000D03*
X68580000Y-95504000D03*
X80772000Y-90932000D03*
X113284000Y-96012000D03*
X71628000Y-98552000D03*
X68580000Y-83820000D03*
X95504000Y-76708000D03*
X70104000Y-76708000D03*
D18*
X86563200Y-87477600D03*
D17*
X89550000Y-91050000D03*
X74676000Y-95504000D03*
X111760000Y-94488000D03*
X110236000Y-92964000D03*
X113284000Y-92964000D03*
X71628000Y-83820000D03*
X89408000Y-78232000D03*
X86868000Y-79756000D03*
X80772000Y-92456000D03*
X103987600Y-90982800D03*
X70104000Y-98552000D03*
X78232000Y-95504000D03*
X93980000Y-78232000D03*
X89408000Y-79756000D03*
X82296000Y-79756000D03*
X79756000Y-97028000D03*
X105050000Y-89450000D03*
X68580000Y-85344000D03*
X74676000Y-89916000D03*
X95800000Y-90600000D03*
X71628000Y-97028000D03*
X81280000Y-98552000D03*
X111760000Y-81788000D03*
X73152000Y-83820000D03*
X73152000Y-78232000D03*
X71628000Y-88392000D03*
X70104000Y-79756000D03*
X70104000Y-91440000D03*
X88725000Y-85475000D03*
X95504000Y-79756000D03*
X73152000Y-76708000D03*
D18*
X109400000Y-86400000D03*
D17*
X95504000Y-78232000D03*
X70104000Y-85344000D03*
X95800000Y-92250000D03*
X71628000Y-86868000D03*
X74676000Y-97028000D03*
X79248000Y-90932000D03*
X73152000Y-86868000D03*
D18*
X101295200Y-82956400D03*
D17*
X83820000Y-78232000D03*
X103886000Y-89916000D03*
X68580000Y-97028000D03*
X82296000Y-92456000D03*
X79248000Y-92456000D03*
X92456000Y-79756000D03*
X73152000Y-91440000D03*
X70104000Y-89916000D03*
X74676000Y-78232000D03*
X85344000Y-79756000D03*
X71628000Y-85344000D03*
X82296000Y-90932000D03*
X68580000Y-79756000D03*
X79248000Y-82804000D03*
X71628000Y-91440000D03*
X93980000Y-79756000D03*
X83820000Y-76708000D03*
X82296000Y-78232000D03*
X89550000Y-92250000D03*
D18*
X87680800Y-87172800D03*
D17*
X85025000Y-81050000D03*
X74676000Y-76708000D03*
X86400000Y-91100000D03*
X110236000Y-97536000D03*
X82296000Y-76708000D03*
X78232000Y-98552000D03*
X111760000Y-78740000D03*
X113284000Y-83312000D03*
X83820000Y-79756000D03*
X68580000Y-91440000D03*
X80772000Y-78232000D03*
X111760000Y-92964000D03*
X73152000Y-85344000D03*
X85344000Y-76708000D03*
X110236000Y-83312000D03*
X71628000Y-95504000D03*
X113284000Y-97536000D03*
X90932000Y-76708000D03*
X80772000Y-79756000D03*
X111700000Y-91550000D03*
X93980000Y-76708000D03*
X74676000Y-91440000D03*
D18*
X87223600Y-86207600D03*
D17*
%TO.N,/VCCP1I*%
X105150000Y-90400000D03*
%TO.N,VBUS*%
X101150000Y-84050000D03*
X89750000Y-86900000D03*
D18*
%TO.N,/HID1*%
X101650000Y-86275000D03*
%TO.N,/HID2*%
X100930000Y-86920000D03*
%TO.N,/HID0*%
X102300000Y-85000000D03*
%TD*%
D19*
%TO.N,/VCOM*%
X99565000Y-90646500D02*
X99536000Y-90617500D01*
X99565000Y-92100000D02*
X99565000Y-90646500D01*
%TO.N,GND*%
X99536000Y-88542500D02*
X100967500Y-88542500D01*
X105050000Y-89450000D02*
X106592500Y-89450000D01*
X106592500Y-89450000D02*
X106705000Y-89337500D01*
X100967500Y-85182500D02*
X101150000Y-85000000D01*
X100967500Y-88542500D02*
X100975000Y-88550000D01*
X99535000Y-85182500D02*
X100967500Y-85182500D01*
%TO.N,/VCCP1I*%
X105222500Y-90472500D02*
X105150000Y-90400000D01*
X106705000Y-90472500D02*
X105222500Y-90472500D01*
%TO.N,VBUS*%
X99537500Y-84050000D02*
X99535000Y-84047500D01*
X89750000Y-86900000D02*
X92602500Y-84047500D01*
X92602500Y-84047500D02*
X99535000Y-84047500D01*
X101150000Y-84050000D02*
X99537500Y-84050000D01*
D20*
%TO.N,/HID1*%
X102150000Y-86275000D02*
X103275000Y-85150000D01*
X101650000Y-86275000D02*
X102150000Y-86275000D01*
X101885000Y-79860000D02*
X101885000Y-77965000D01*
X103275000Y-81250000D02*
X101885000Y-79860000D01*
X103275000Y-85150000D02*
X103275000Y-81250000D01*
%TO.N,/HID2*%
X100930000Y-86920000D02*
X102805000Y-86920000D01*
X102805000Y-86920000D02*
X104425000Y-85300000D01*
X104425000Y-85300000D02*
X104425000Y-77965000D01*
%TO.N,/HID0*%
X102300000Y-85000000D02*
X102300000Y-81900000D01*
X102300000Y-81900000D02*
X99345000Y-78945000D01*
X99345000Y-78945000D02*
X99345000Y-77965000D01*
%TD*%
%TA.AperFunction,Conductor*%
%TO.N,/VCOM*%
G36*
X99544211Y-90623999D02*
G01*
X100130646Y-91159558D01*
X100134444Y-91167667D01*
X100133189Y-91173492D01*
X99822251Y-91786095D01*
X99815451Y-91791922D01*
X99811818Y-91792500D01*
X99317781Y-91792500D01*
X99309508Y-91789073D01*
X99307629Y-91786617D01*
X98966788Y-91191763D01*
X98965649Y-91182881D01*
X98968712Y-91177628D01*
X99528094Y-90624319D01*
X99536385Y-90620938D01*
X99544211Y-90623999D01*
G37*
%TD.AperFunction*%
%TD*%
%TA.AperFunction,Conductor*%
%TO.N,/VCOM*%
G36*
X99816435Y-91503427D02*
G01*
X99819828Y-91510806D01*
X99864037Y-92087447D01*
X99861252Y-92095958D01*
X99853265Y-92100007D01*
X99852410Y-92100041D01*
X99565039Y-92100999D01*
X99564961Y-92100999D01*
X99277589Y-92100041D01*
X99269327Y-92096587D01*
X99265928Y-92088302D01*
X99265962Y-92087447D01*
X99310172Y-91510806D01*
X99314221Y-91502819D01*
X99321838Y-91500000D01*
X99808162Y-91500000D01*
X99816435Y-91503427D01*
G37*
%TD.AperFunction*%
%TD*%
M02*
