%TF.GenerationSoftware,KiCad,Pcbnew,8.0.5*%
%TF.CreationDate,2024-10-10T11:52:41-04:00*%
%TF.ProjectId,dac,6461632e-6b69-4636-9164-5f7063625858,rev?*%
%TF.SameCoordinates,Original*%
%TF.FileFunction,Drillmap*%
%TF.FilePolarity,Positive*%
%FSLAX45Y45*%
G04 Gerber Fmt 4.5, Leading zero omitted, Abs format (unit mm)*
G04 Created by KiCad (PCBNEW 8.0.5) date 2024-10-10 11:52:41*
%MOMM*%
%LPD*%
G01*
G04 APERTURE LIST*
%ADD10C,0.050000*%
%ADD11C,0.200000*%
G04 APERTURE END LIST*
D10*
X6500000Y-8000000D02*
X6500000Y-9500000D01*
X7000000Y-10000000D02*
X11000000Y-10000000D01*
X7000000Y-10000000D02*
G75*
G02*
X6500000Y-9500000I0J500000D01*
G01*
X11500000Y-9500000D02*
G75*
G02*
X11000000Y-10000000I-500000J0D01*
G01*
X11000000Y-7500000D02*
G75*
G02*
X11500000Y-8000000I0J-500000D01*
G01*
X6500000Y-8000000D02*
G75*
G02*
X7000000Y-7500000I500000J0D01*
G01*
X11000000Y-7500000D02*
X7000000Y-7500000D01*
X11500000Y-9500000D02*
X11500000Y-8000000D01*
D11*
X6758277Y-10313984D02*
X6758277Y-10113984D01*
X6758277Y-10113984D02*
X6805896Y-10113984D01*
X6805896Y-10113984D02*
X6834467Y-10123508D01*
X6834467Y-10123508D02*
X6853515Y-10142555D01*
X6853515Y-10142555D02*
X6863039Y-10161603D01*
X6863039Y-10161603D02*
X6872562Y-10199698D01*
X6872562Y-10199698D02*
X6872562Y-10228270D01*
X6872562Y-10228270D02*
X6863039Y-10266365D01*
X6863039Y-10266365D02*
X6853515Y-10285412D01*
X6853515Y-10285412D02*
X6834467Y-10304460D01*
X6834467Y-10304460D02*
X6805896Y-10313984D01*
X6805896Y-10313984D02*
X6758277Y-10313984D01*
X6958277Y-10313984D02*
X6958277Y-10180650D01*
X6958277Y-10218746D02*
X6967801Y-10199698D01*
X6967801Y-10199698D02*
X6977324Y-10190174D01*
X6977324Y-10190174D02*
X6996372Y-10180650D01*
X6996372Y-10180650D02*
X7015420Y-10180650D01*
X7082086Y-10313984D02*
X7082086Y-10180650D01*
X7082086Y-10113984D02*
X7072562Y-10123508D01*
X7072562Y-10123508D02*
X7082086Y-10133031D01*
X7082086Y-10133031D02*
X7091610Y-10123508D01*
X7091610Y-10123508D02*
X7082086Y-10113984D01*
X7082086Y-10113984D02*
X7082086Y-10133031D01*
X7205896Y-10313984D02*
X7186848Y-10304460D01*
X7186848Y-10304460D02*
X7177324Y-10285412D01*
X7177324Y-10285412D02*
X7177324Y-10113984D01*
X7310658Y-10313984D02*
X7291610Y-10304460D01*
X7291610Y-10304460D02*
X7282086Y-10285412D01*
X7282086Y-10285412D02*
X7282086Y-10113984D01*
X7539229Y-10313984D02*
X7539229Y-10113984D01*
X7539229Y-10113984D02*
X7605896Y-10256841D01*
X7605896Y-10256841D02*
X7672562Y-10113984D01*
X7672562Y-10113984D02*
X7672562Y-10313984D01*
X7853515Y-10313984D02*
X7853515Y-10209222D01*
X7853515Y-10209222D02*
X7843991Y-10190174D01*
X7843991Y-10190174D02*
X7824943Y-10180650D01*
X7824943Y-10180650D02*
X7786848Y-10180650D01*
X7786848Y-10180650D02*
X7767801Y-10190174D01*
X7853515Y-10304460D02*
X7834467Y-10313984D01*
X7834467Y-10313984D02*
X7786848Y-10313984D01*
X7786848Y-10313984D02*
X7767801Y-10304460D01*
X7767801Y-10304460D02*
X7758277Y-10285412D01*
X7758277Y-10285412D02*
X7758277Y-10266365D01*
X7758277Y-10266365D02*
X7767801Y-10247317D01*
X7767801Y-10247317D02*
X7786848Y-10237793D01*
X7786848Y-10237793D02*
X7834467Y-10237793D01*
X7834467Y-10237793D02*
X7853515Y-10228270D01*
X7948753Y-10180650D02*
X7948753Y-10380650D01*
X7948753Y-10190174D02*
X7967801Y-10180650D01*
X7967801Y-10180650D02*
X8005896Y-10180650D01*
X8005896Y-10180650D02*
X8024943Y-10190174D01*
X8024943Y-10190174D02*
X8034467Y-10199698D01*
X8034467Y-10199698D02*
X8043991Y-10218746D01*
X8043991Y-10218746D02*
X8043991Y-10275889D01*
X8043991Y-10275889D02*
X8034467Y-10294936D01*
X8034467Y-10294936D02*
X8024943Y-10304460D01*
X8024943Y-10304460D02*
X8005896Y-10313984D01*
X8005896Y-10313984D02*
X7967801Y-10313984D01*
X7967801Y-10313984D02*
X7948753Y-10304460D01*
X8129705Y-10294936D02*
X8139229Y-10304460D01*
X8139229Y-10304460D02*
X8129705Y-10313984D01*
X8129705Y-10313984D02*
X8120182Y-10304460D01*
X8120182Y-10304460D02*
X8129705Y-10294936D01*
X8129705Y-10294936D02*
X8129705Y-10313984D01*
X8129705Y-10190174D02*
X8139229Y-10199698D01*
X8139229Y-10199698D02*
X8129705Y-10209222D01*
X8129705Y-10209222D02*
X8120182Y-10199698D01*
X8120182Y-10199698D02*
X8129705Y-10190174D01*
X8129705Y-10190174D02*
X8129705Y-10209222D01*
M02*
